<?xml version="1.0" encoding="utf-8" standalone="no"?>
<!DOCTYPE svg PUBLIC "-//W3C//DTD SVG 1.1//EN"
  "http://www.w3.org/Graphics/SVG/1.1/DTD/svg11.dtd">
<svg xmlns:xlink="http://www.w3.org/1999/xlink" width="229.084287pt" height="112.118238pt" viewBox="0 0 229.084287 112.118238" xmlns="http://www.w3.org/2000/svg" version="1.1">
 <metadata>
  <rdf:RDF xmlns:dc="http://purl.org/dc/elements/1.1/" xmlns:cc="http://creativecommons.org/ns#" xmlns:rdf="http://www.w3.org/1999/02/22-rdf-syntax-ns#">
   <cc:Work>
    <dc:type rdf:resource="http://purl.org/dc/dcmitype/StillImage"/>
    <dc:date>2025-04-16T22:59:39.522804</dc:date>
    <dc:format>image/svg+xml</dc:format>
    <dc:creator>
     <cc:Agent>
      <dc:title>Matplotlib v3.9.1.post1, https://matplotlib.org/</dc:title>
     </cc:Agent>
    </dc:creator>
   </cc:Work>
  </rdf:RDF>
 </metadata>
 <defs>
  <style type="text/css">*{stroke-linejoin: round; stroke-linecap: butt}</style>
 </defs>
 <g id="figure_1">
  <g id="patch_1">
   <path d="M 0 112.118238 
L 229.084287 112.118238 
L 229.084287 -0 
L 0 -0 
z
" style="fill: #ffffff"/>
  </g>
  <g id="axes_1">
   <g id="patch_2">
    <path d="M 30.184287 86.76 
L 225.484287 86.76 
L 225.484287 3.6 
L 30.184287 3.6 
z
" style="fill: #ffffff"/>
   </g>
   <g id="line2d_1">
    <path d="M 30.184287 15.48 
L 225.484287 15.48 
" clip-path="url(#p43380f8707)" style="fill: none; stroke: #808080; stroke-width: 0.2; stroke-linecap: square"/>
   </g>
   <g id="matplotlib.axis_1">
    <g id="xtick_1">
     <g id="line2d_2">
      <defs>
       <path id="m0b0716ba70" d="M 0 0 
L 0 -3 
" style="stroke: #000000; stroke-width: 0.5"/>
      </defs>
      <g>
       <use xlink:href="#m0b0716ba70" x="39.06156" y="86.76" style="stroke: #000000; stroke-width: 0.5"/>
      </g>
     </g>
     <g id="line2d_3">
      <defs>
       <path id="m2d2e225d36" d="M 0 0 
L 0 3 
" style="stroke: #000000; stroke-width: 0.5"/>
      </defs>
      <g>
       <use xlink:href="#m2d2e225d36" x="39.06156" y="3.6" style="stroke: #000000; stroke-width: 0.5"/>
      </g>
     </g>
     <g id="text_1">
      <!-- $\mathdefault{0}$ -->
      <g transform="translate(37.069032 95.663656) scale(0.08 -0.08)">
       <defs>
        <path id="NimbusRomNo9L-Regu-30" d="M 1626 4352 
C 1274 4352 1005 4244 768 4020 
C 397 3661 154 2925 154 2176 
C 154 1479 365 730 666 372 
C 902 90 1229 -64 1600 -64 
C 1926 -64 2202 45 2432 269 
C 2803 621 3046 1364 3046 2138 
C 3046 3450 2464 4352 1626 4352 
z
M 1606 4186 
C 2144 4186 2432 3463 2432 2125 
C 2432 788 2150 103 1600 103 
C 1050 103 768 788 768 2119 
C 768 3476 1056 4186 1606 4186 
z
" transform="scale(0.015625)"/>
       </defs>
       <use xlink:href="#NimbusRomNo9L-Regu-30" transform="scale(0.996264)"/>
      </g>
     </g>
    </g>
    <g id="xtick_2">
     <g id="line2d_4">
      <g>
       <use xlink:href="#m0b0716ba70" x="82.720278" y="86.76" style="stroke: #000000; stroke-width: 0.5"/>
      </g>
     </g>
     <g id="line2d_5">
      <g>
       <use xlink:href="#m2d2e225d36" x="82.720278" y="3.6" style="stroke: #000000; stroke-width: 0.5"/>
      </g>
     </g>
     <g id="text_2">
      <!-- $\mathdefault{5}$ -->
      <g transform="translate(80.72775 95.663656) scale(0.08 -0.08)">
       <defs>
        <path id="NimbusRomNo9L-Regu-35" d="M 1158 3776 
L 2413 3776 
C 2515 3776 2541 3789 2560 3834 
L 2803 4403 
L 2746 4448 
C 2650 4314 2586 4282 2451 4282 
L 1114 4282 
L 416 2759 
C 410 2746 410 2740 410 2727 
C 410 2695 435 2676 486 2676 
C 691 2676 947 2631 1210 2547 
C 1946 2309 2285 1910 2285 1274 
C 2285 656 1894 173 1395 173 
C 1267 173 1158 218 966 360 
C 762 508 614 572 480 572 
C 294 572 205 495 205 334 
C 205 90 506 -64 986 -64 
C 1523 -64 1984 110 2304 438 
C 2598 728 2733 1094 2733 1583 
C 2733 2046 2611 2342 2291 2663 
C 2010 2947 1645 3094 890 3229 
L 1158 3776 
z
" transform="scale(0.015625)"/>
       </defs>
       <use xlink:href="#NimbusRomNo9L-Regu-35" transform="scale(0.996264)"/>
      </g>
     </g>
    </g>
    <g id="xtick_3">
     <g id="line2d_6">
      <g>
       <use xlink:href="#m0b0716ba70" x="126.378997" y="86.76" style="stroke: #000000; stroke-width: 0.5"/>
      </g>
     </g>
     <g id="line2d_7">
      <g>
       <use xlink:href="#m2d2e225d36" x="126.378997" y="3.6" style="stroke: #000000; stroke-width: 0.5"/>
      </g>
     </g>
     <g id="text_3">
      <!-- $\mathdefault{10}$ -->
      <g transform="translate(122.393941 95.663656) scale(0.08 -0.08)">
       <defs>
        <path id="NimbusRomNo9L-Regu-31" d="M 1862 4339 
L 710 3757 
L 710 3667 
C 787 3699 858 3725 883 3738 
C 998 3783 1107 3808 1171 3808 
C 1306 3808 1363 3711 1363 3505 
L 1363 592 
C 1363 379 1312 232 1210 173 
C 1114 116 1024 96 755 96 
L 755 0 
L 2522 0 
L 2522 96 
C 2016 96 1914 160 1914 470 
L 1914 4327 
L 1862 4339 
z
" transform="scale(0.015625)"/>
       </defs>
       <use xlink:href="#NimbusRomNo9L-Regu-31" transform="scale(0.996264)"/>
       <use xlink:href="#NimbusRomNo9L-Regu-30" transform="translate(49.8132 0) scale(0.996264)"/>
      </g>
     </g>
    </g>
    <g id="xtick_4">
     <g id="line2d_8">
      <g>
       <use xlink:href="#m0b0716ba70" x="170.037715" y="86.76" style="stroke: #000000; stroke-width: 0.5"/>
      </g>
     </g>
     <g id="line2d_9">
      <g>
       <use xlink:href="#m2d2e225d36" x="170.037715" y="3.6" style="stroke: #000000; stroke-width: 0.5"/>
      </g>
     </g>
     <g id="text_4">
      <!-- $\mathdefault{15}$ -->
      <g transform="translate(166.052659 95.663656) scale(0.08 -0.08)">
       <use xlink:href="#NimbusRomNo9L-Regu-31" transform="scale(0.996264)"/>
       <use xlink:href="#NimbusRomNo9L-Regu-35" transform="translate(49.8132 0) scale(0.996264)"/>
      </g>
     </g>
    </g>
    <g id="xtick_5">
     <g id="line2d_10">
      <g>
       <use xlink:href="#m0b0716ba70" x="213.696433" y="86.76" style="stroke: #000000; stroke-width: 0.5"/>
      </g>
     </g>
     <g id="line2d_11">
      <g>
       <use xlink:href="#m2d2e225d36" x="213.696433" y="3.6" style="stroke: #000000; stroke-width: 0.5"/>
      </g>
     </g>
     <g id="text_5">
      <!-- $\mathdefault{20}$ -->
      <g transform="translate(209.711377 95.663656) scale(0.08 -0.08)">
       <defs>
        <path id="NimbusRomNo9L-Regu-32" d="M 3040 875 
L 2957 907 
C 2720 544 2637 486 2349 486 
L 819 486 
L 1894 1609 
C 2464 2202 2714 2687 2714 3185 
C 2714 3823 2195 4313 1530 4313 
C 1178 4313 845 4173 608 3918 
C 403 3700 307 3496 198 3043 
L 333 3011 
C 589 3636 819 3840 1261 3840 
C 1798 3840 2163 3476 2163 2940 
C 2163 2443 1869 1850 1331 1282 
L 192 77 
L 192 0 
L 2688 0 
L 3040 875 
z
" transform="scale(0.015625)"/>
       </defs>
       <use xlink:href="#NimbusRomNo9L-Regu-32" transform="scale(0.996264)"/>
       <use xlink:href="#NimbusRomNo9L-Regu-30" transform="translate(49.8132 0) scale(0.996264)"/>
      </g>
     </g>
    </g>
    <g id="xtick_6">
     <g id="line2d_12">
      <defs>
       <path id="m615534753e" d="M 0 0 
L 0 -1.5 
" style="stroke: #000000; stroke-width: 0.5"/>
      </defs>
      <g>
       <use xlink:href="#m615534753e" x="30.329816" y="86.76" style="stroke: #000000; stroke-width: 0.5"/>
      </g>
     </g>
     <g id="line2d_13">
      <defs>
       <path id="m89e67069f1" d="M 0 0 
L 0 1.5 
" style="stroke: #000000; stroke-width: 0.5"/>
      </defs>
      <g>
       <use xlink:href="#m89e67069f1" x="30.329816" y="3.6" style="stroke: #000000; stroke-width: 0.5"/>
      </g>
     </g>
    </g>
    <g id="xtick_7">
     <g id="line2d_14">
      <g>
       <use xlink:href="#m615534753e" x="47.793304" y="86.76" style="stroke: #000000; stroke-width: 0.5"/>
      </g>
     </g>
     <g id="line2d_15">
      <g>
       <use xlink:href="#m89e67069f1" x="47.793304" y="3.6" style="stroke: #000000; stroke-width: 0.5"/>
      </g>
     </g>
    </g>
    <g id="xtick_8">
     <g id="line2d_16">
      <g>
       <use xlink:href="#m615534753e" x="56.525047" y="86.76" style="stroke: #000000; stroke-width: 0.5"/>
      </g>
     </g>
     <g id="line2d_17">
      <g>
       <use xlink:href="#m89e67069f1" x="56.525047" y="3.6" style="stroke: #000000; stroke-width: 0.5"/>
      </g>
     </g>
    </g>
    <g id="xtick_9">
     <g id="line2d_18">
      <g>
       <use xlink:href="#m615534753e" x="65.256791" y="86.76" style="stroke: #000000; stroke-width: 0.5"/>
      </g>
     </g>
     <g id="line2d_19">
      <g>
       <use xlink:href="#m89e67069f1" x="65.256791" y="3.6" style="stroke: #000000; stroke-width: 0.5"/>
      </g>
     </g>
    </g>
    <g id="xtick_10">
     <g id="line2d_20">
      <g>
       <use xlink:href="#m615534753e" x="73.988535" y="86.76" style="stroke: #000000; stroke-width: 0.5"/>
      </g>
     </g>
     <g id="line2d_21">
      <g>
       <use xlink:href="#m89e67069f1" x="73.988535" y="3.6" style="stroke: #000000; stroke-width: 0.5"/>
      </g>
     </g>
    </g>
    <g id="xtick_11">
     <g id="line2d_22">
      <g>
       <use xlink:href="#m615534753e" x="91.452022" y="86.76" style="stroke: #000000; stroke-width: 0.5"/>
      </g>
     </g>
     <g id="line2d_23">
      <g>
       <use xlink:href="#m89e67069f1" x="91.452022" y="3.6" style="stroke: #000000; stroke-width: 0.5"/>
      </g>
     </g>
    </g>
    <g id="xtick_12">
     <g id="line2d_24">
      <g>
       <use xlink:href="#m615534753e" x="100.183766" y="86.76" style="stroke: #000000; stroke-width: 0.5"/>
      </g>
     </g>
     <g id="line2d_25">
      <g>
       <use xlink:href="#m89e67069f1" x="100.183766" y="3.6" style="stroke: #000000; stroke-width: 0.5"/>
      </g>
     </g>
    </g>
    <g id="xtick_13">
     <g id="line2d_26">
      <g>
       <use xlink:href="#m615534753e" x="108.915509" y="86.76" style="stroke: #000000; stroke-width: 0.5"/>
      </g>
     </g>
     <g id="line2d_27">
      <g>
       <use xlink:href="#m89e67069f1" x="108.915509" y="3.6" style="stroke: #000000; stroke-width: 0.5"/>
      </g>
     </g>
    </g>
    <g id="xtick_14">
     <g id="line2d_28">
      <g>
       <use xlink:href="#m615534753e" x="117.647253" y="86.76" style="stroke: #000000; stroke-width: 0.5"/>
      </g>
     </g>
     <g id="line2d_29">
      <g>
       <use xlink:href="#m89e67069f1" x="117.647253" y="3.6" style="stroke: #000000; stroke-width: 0.5"/>
      </g>
     </g>
    </g>
    <g id="xtick_15">
     <g id="line2d_30">
      <g>
       <use xlink:href="#m615534753e" x="135.11074" y="86.76" style="stroke: #000000; stroke-width: 0.5"/>
      </g>
     </g>
     <g id="line2d_31">
      <g>
       <use xlink:href="#m89e67069f1" x="135.11074" y="3.6" style="stroke: #000000; stroke-width: 0.5"/>
      </g>
     </g>
    </g>
    <g id="xtick_16">
     <g id="line2d_32">
      <g>
       <use xlink:href="#m615534753e" x="143.842484" y="86.76" style="stroke: #000000; stroke-width: 0.5"/>
      </g>
     </g>
     <g id="line2d_33">
      <g>
       <use xlink:href="#m89e67069f1" x="143.842484" y="3.6" style="stroke: #000000; stroke-width: 0.5"/>
      </g>
     </g>
    </g>
    <g id="xtick_17">
     <g id="line2d_34">
      <g>
       <use xlink:href="#m615534753e" x="152.574228" y="86.76" style="stroke: #000000; stroke-width: 0.5"/>
      </g>
     </g>
     <g id="line2d_35">
      <g>
       <use xlink:href="#m89e67069f1" x="152.574228" y="3.6" style="stroke: #000000; stroke-width: 0.5"/>
      </g>
     </g>
    </g>
    <g id="xtick_18">
     <g id="line2d_36">
      <g>
       <use xlink:href="#m615534753e" x="161.305971" y="86.76" style="stroke: #000000; stroke-width: 0.5"/>
      </g>
     </g>
     <g id="line2d_37">
      <g>
       <use xlink:href="#m89e67069f1" x="161.305971" y="3.6" style="stroke: #000000; stroke-width: 0.5"/>
      </g>
     </g>
    </g>
    <g id="xtick_19">
     <g id="line2d_38">
      <g>
       <use xlink:href="#m615534753e" x="178.769459" y="86.76" style="stroke: #000000; stroke-width: 0.5"/>
      </g>
     </g>
     <g id="line2d_39">
      <g>
       <use xlink:href="#m89e67069f1" x="178.769459" y="3.6" style="stroke: #000000; stroke-width: 0.5"/>
      </g>
     </g>
    </g>
    <g id="xtick_20">
     <g id="line2d_40">
      <g>
       <use xlink:href="#m615534753e" x="187.501202" y="86.76" style="stroke: #000000; stroke-width: 0.5"/>
      </g>
     </g>
     <g id="line2d_41">
      <g>
       <use xlink:href="#m89e67069f1" x="187.501202" y="3.6" style="stroke: #000000; stroke-width: 0.5"/>
      </g>
     </g>
    </g>
    <g id="xtick_21">
     <g id="line2d_42">
      <g>
       <use xlink:href="#m615534753e" x="196.232946" y="86.76" style="stroke: #000000; stroke-width: 0.5"/>
      </g>
     </g>
     <g id="line2d_43">
      <g>
       <use xlink:href="#m89e67069f1" x="196.232946" y="3.6" style="stroke: #000000; stroke-width: 0.5"/>
      </g>
     </g>
    </g>
    <g id="xtick_22">
     <g id="line2d_44">
      <g>
       <use xlink:href="#m615534753e" x="204.96469" y="86.76" style="stroke: #000000; stroke-width: 0.5"/>
      </g>
     </g>
     <g id="line2d_45">
      <g>
       <use xlink:href="#m89e67069f1" x="204.96469" y="3.6" style="stroke: #000000; stroke-width: 0.5"/>
      </g>
     </g>
    </g>
    <g id="xtick_23">
     <g id="line2d_46">
      <g>
       <use xlink:href="#m615534753e" x="222.428177" y="86.76" style="stroke: #000000; stroke-width: 0.5"/>
      </g>
     </g>
     <g id="line2d_47">
      <g>
       <use xlink:href="#m89e67069f1" x="222.428177" y="3.6" style="stroke: #000000; stroke-width: 0.5"/>
      </g>
     </g>
    </g>
    <g id="text_6">
     <!-- Time (minutes) -->
     <g transform="translate(103.290629 106.792775) scale(0.08 -0.08)">
      <defs>
       <path id="NimbusRomNo9L-Regu-54" d="M 1626 3968 
L 1626 751 
C 1626 204 1555 134 1024 134 
L 1024 0 
L 2893 0 
L 2893 134 
C 2368 134 2278 217 2278 687 
L 2278 3968 
L 2624 3968 
C 3354 3968 3494 3853 3642 3149 
L 3795 3149 
L 3757 4237 
L 147 4237 
L 109 3149 
L 262 3149 
C 416 3846 563 3968 1280 3968 
L 1626 3968 
z
" transform="scale(0.015625)"/>
       <path id="NimbusRomNo9L-Regu-69" d="M 1120 2929 
L 128 2579 
L 128 2484 
L 179 2490 
C 256 2502 339 2509 397 2509 
C 550 2509 608 2406 608 2125 
L 608 640 
C 608 179 544 109 102 109 
L 102 0 
L 1619 0 
L 1619 96 
C 1197 128 1146 191 1146 650 
L 1146 2910 
L 1120 2929 
z
M 819 4352 
C 646 4352 499 4205 499 4026 
C 499 3847 640 3699 819 3699 
C 1005 3699 1152 3840 1152 4026 
C 1152 4205 1005 4352 819 4352 
z
" transform="scale(0.015625)"/>
       <path id="NimbusRomNo9L-Regu-6d" d="M 122 2547 
C 205 2566 256 2573 326 2573 
C 493 2573 550 2470 550 2162 
L 550 539 
C 550 192 461 96 102 96 
L 102 0 
L 1523 0 
L 1523 96 
C 1184 96 1088 166 1088 418 
L 1088 2234 
C 1088 2246 1139 2310 1184 2355 
C 1344 2502 1619 2611 1843 2611 
C 2125 2611 2266 2385 2266 1932 
L 2266 528 
C 2266 167 2195 96 1830 96 
L 1830 0 
L 3264 0 
L 3264 96 
C 2899 96 2803 205 2803 603 
L 2803 2221 
C 2995 2496 3206 2611 3501 2611 
C 3866 2611 3981 2438 3981 1907 
L 3981 557 
C 3981 192 3930 141 3558 96 
L 3558 0 
L 4960 0 
L 4960 96 
L 4794 115 
C 4602 115 4518 230 4518 480 
L 4518 1802 
C 4518 2559 4269 2944 3776 2944 
C 3405 2944 3078 2778 2733 2407 
C 2618 2771 2400 2944 2054 2944 
C 1773 2944 1594 2854 1062 2451 
L 1062 2931 
L 1018 2944 
C 691 2822 474 2752 122 2656 
L 122 2547 
z
" transform="scale(0.015625)"/>
       <path id="NimbusRomNo9L-Regu-65" d="M 2611 1053 
C 2304 564 2029 378 1619 378 
C 1254 378 979 564 794 930 
C 678 1174 634 1386 621 1779 
L 2592 1779 
C 2541 2193 2477 2377 2317 2581 
C 2125 2811 1830 2944 1498 2944 
C 1178 2944 877 2829 634 2611 
C 333 2349 160 1894 160 1370 
C 160 486 621 -64 1357 -64 
C 1965 -64 2445 315 2714 1008 
L 2611 1053 
z
M 634 1984 
C 704 2479 922 2714 1312 2714 
C 1702 2714 1856 2535 1939 1984 
L 634 1984 
z
" transform="scale(0.015625)"/>
       <path id="NimbusRomNo9L-Regu-28" d="M 1888 4326 
C 1414 4019 1222 3853 986 3558 
C 531 3002 307 2362 307 1613 
C 307 800 544 173 1107 -480 
C 1370 -787 1536 -928 1869 -1133 
L 1946 -1030 
C 1434 -627 1254 -403 1082 77 
C 928 506 858 992 858 1632 
C 858 2304 941 2829 1114 3226 
C 1293 3622 1485 3853 1946 4224 
L 1888 4326 
z
" transform="scale(0.015625)"/>
       <path id="NimbusRomNo9L-Regu-6e" d="M 102 2579 
C 141 2598 205 2605 275 2605 
C 454 2605 512 2509 512 2195 
L 512 608 
C 512 243 442 154 115 128 
L 115 32 
L 1472 32 
L 1472 128 
C 1146 154 1050 230 1050 461 
L 1050 2259 
C 1357 2547 1498 2624 1709 2624 
C 2022 2624 2176 2426 2176 2003 
L 2176 666 
C 2176 262 2093 154 1773 128 
L 1773 32 
L 3104 32 
L 3104 128 
C 2790 160 2714 237 2714 550 
L 2714 2016 
C 2714 2618 2432 2976 1958 2976 
C 1664 2976 1466 2867 1030 2458 
L 1030 2963 
L 986 2976 
C 672 2861 454 2790 102 2688 
L 102 2579 
z
" transform="scale(0.015625)"/>
       <path id="NimbusRomNo9L-Regu-75" d="M 3066 320 
L 3034 320 
C 2739 320 2669 390 2669 685 
L 2669 2880 
L 1658 2880 
L 1658 2758 
C 2054 2758 2131 2694 2131 2375 
L 2131 875 
C 2131 697 2099 607 2010 537 
C 1837 397 1638 320 1446 320 
C 1197 320 992 537 992 805 
L 992 2880 
L 58 2880 
L 58 2778 
C 365 2778 454 2682 454 2387 
L 454 770 
C 454 263 762 -64 1229 -64 
C 1466 -64 1715 38 1888 211 
L 2163 486 
L 2163 -45 
L 2189 -58 
C 2509 70 2739 141 3066 230 
L 3066 320 
z
" transform="scale(0.015625)"/>
       <path id="NimbusRomNo9L-Regu-74" d="M 1632 2880 
L 986 2880 
L 986 3622 
C 986 3686 979 3706 941 3706 
C 896 3648 858 3590 813 3526 
C 570 3174 294 2867 192 2841 
C 122 2794 83 2748 83 2715 
C 83 2695 90 2682 109 2682 
L 448 2682 
L 448 751 
C 448 212 640 -64 1018 -64 
C 1331 -64 1574 90 1786 423 
L 1702 493 
C 1568 333 1459 269 1318 269 
C 1082 269 986 443 986 847 
L 986 2682 
L 1632 2682 
L 1632 2880 
z
" transform="scale(0.015625)"/>
       <path id="NimbusRomNo9L-Regu-73" d="M 2016 2010 
L 1990 2880 
L 1920 2880 
L 1907 2867 
C 1850 2822 1843 2816 1818 2816 
C 1779 2816 1715 2829 1645 2861 
C 1504 2915 1363 2944 1197 2944 
C 691 2944 326 2616 326 2154 
C 326 1796 531 1539 1075 1231 
L 1446 1020 
C 1670 892 1779 737 1779 539 
C 1779 256 1574 77 1248 77 
C 1030 77 832 159 710 298 
C 576 455 518 600 435 960 
L 333 960 
L 333 -39 
L 416 -39 
C 461 33 486 48 563 48 
C 621 48 710 35 858 -2 
C 1037 -39 1210 -64 1325 -64 
C 1818 -64 2227 308 2227 757 
C 2227 1077 2074 1289 1690 1520 
L 998 1930 
C 819 2033 723 2194 723 2367 
C 723 2624 922 2803 1216 2803 
C 1581 2803 1773 2583 1920 2010 
L 2016 2010 
z
" transform="scale(0.015625)"/>
       <path id="NimbusRomNo9L-Regu-29" d="M 243 -1133 
C 717 -826 909 -659 1146 -365 
C 1600 192 1824 832 1824 1581 
C 1824 2400 1587 3021 1024 3674 
C 762 3981 595 4122 262 4326 
L 186 4224 
C 698 3821 870 3597 1050 3117 
C 1203 2688 1274 2202 1274 1562 
C 1274 896 1190 365 1018 -26 
C 838 -429 646 -659 186 -1030 
L 243 -1133 
z
" transform="scale(0.015625)"/>
      </defs>
      <use xlink:href="#NimbusRomNo9L-Regu-54" transform="scale(0.996264)"/>
      <use xlink:href="#NimbusRomNo9L-Regu-69" transform="translate(57.384904 0) scale(0.996264)"/>
      <use xlink:href="#NimbusRomNo9L-Regu-6d" transform="translate(85.080074 0) scale(0.996264)"/>
      <use xlink:href="#NimbusRomNo9L-Regu-65" transform="translate(162.588444 0) scale(0.996264)"/>
      <use xlink:href="#NimbusRomNo9L-Regu-28" transform="translate(231.728613 0) scale(0.996264)"/>
      <use xlink:href="#NimbusRomNo9L-Regu-6d" transform="translate(264.903843 0) scale(0.996264)"/>
      <use xlink:href="#NimbusRomNo9L-Regu-69" transform="translate(342.412213 0) scale(0.996264)"/>
      <use xlink:href="#NimbusRomNo9L-Regu-6e" transform="translate(370.107382 0) scale(0.996264)"/>
      <use xlink:href="#NimbusRomNo9L-Regu-75" transform="translate(419.920583 0) scale(0.996264)"/>
      <use xlink:href="#NimbusRomNo9L-Regu-74" transform="translate(469.733783 0) scale(0.996264)"/>
      <use xlink:href="#NimbusRomNo9L-Regu-65" transform="translate(497.428953 0) scale(0.996264)"/>
      <use xlink:href="#NimbusRomNo9L-Regu-73" transform="translate(541.662522 0) scale(0.996264)"/>
      <use xlink:href="#NimbusRomNo9L-Regu-29" transform="translate(580.416228 0) scale(0.996264)"/>
     </g>
    </g>
   </g>
   <g id="matplotlib.axis_2">
    <g id="ytick_1">
     <g id="line2d_48">
      <defs>
       <path id="m8b811f189e" d="M 0 0 
L 3 0 
" style="stroke: #000000; stroke-width: 0.5"/>
      </defs>
      <g>
       <use xlink:href="#m8b811f189e" x="30.184287" y="86.76" style="stroke: #000000; stroke-width: 0.5"/>
      </g>
     </g>
     <g id="line2d_49">
      <defs>
       <path id="mf2eb5df29a" d="M 0 0 
L -3 0 
" style="stroke: #000000; stroke-width: 0.5"/>
      </defs>
      <g>
       <use xlink:href="#mf2eb5df29a" x="225.484287" y="86.76" style="stroke: #000000; stroke-width: 0.5"/>
      </g>
     </g>
     <g id="text_7">
      <!-- $\mathdefault{0}$ -->
      <g transform="translate(22.699231 89.461828) scale(0.08 -0.08)">
       <use xlink:href="#NimbusRomNo9L-Regu-30" transform="scale(0.996264)"/>
      </g>
     </g>
    </g>
    <g id="ytick_2">
     <g id="line2d_50">
      <g>
       <use xlink:href="#m8b811f189e" x="30.184287" y="57.06" style="stroke: #000000; stroke-width: 0.5"/>
      </g>
     </g>
     <g id="line2d_51">
      <g>
       <use xlink:href="#mf2eb5df29a" x="225.484287" y="57.06" style="stroke: #000000; stroke-width: 0.5"/>
      </g>
     </g>
     <g id="text_8">
      <!-- $\mathdefault{50}$ -->
      <g transform="translate(18.714175 59.761828) scale(0.08 -0.08)">
       <use xlink:href="#NimbusRomNo9L-Regu-35" transform="scale(0.996264)"/>
       <use xlink:href="#NimbusRomNo9L-Regu-30" transform="translate(49.8132 0) scale(0.996264)"/>
      </g>
     </g>
    </g>
    <g id="ytick_3">
     <g id="line2d_52">
      <g>
       <use xlink:href="#m8b811f189e" x="30.184287" y="27.36" style="stroke: #000000; stroke-width: 0.5"/>
      </g>
     </g>
     <g id="line2d_53">
      <g>
       <use xlink:href="#mf2eb5df29a" x="225.484287" y="27.36" style="stroke: #000000; stroke-width: 0.5"/>
      </g>
     </g>
     <g id="text_9">
      <!-- $\mathdefault{100}$ -->
      <g transform="translate(14.729119 30.061828) scale(0.08 -0.08)">
       <use xlink:href="#NimbusRomNo9L-Regu-31" transform="scale(0.996264)"/>
       <use xlink:href="#NimbusRomNo9L-Regu-30" transform="translate(49.8132 0) scale(0.996264)"/>
       <use xlink:href="#NimbusRomNo9L-Regu-30" transform="translate(99.626401 0) scale(0.996264)"/>
      </g>
     </g>
    </g>
    <g id="ytick_4">
     <g id="line2d_54">
      <defs>
       <path id="m1c14f6b1c0" d="M 0 0 
L 1.5 0 
" style="stroke: #000000; stroke-width: 0.5"/>
      </defs>
      <g>
       <use xlink:href="#m1c14f6b1c0" x="30.184287" y="80.82" style="stroke: #000000; stroke-width: 0.5"/>
      </g>
     </g>
     <g id="line2d_55">
      <defs>
       <path id="m4830f53e3b" d="M 0 0 
L -1.5 0 
" style="stroke: #000000; stroke-width: 0.5"/>
      </defs>
      <g>
       <use xlink:href="#m4830f53e3b" x="225.484287" y="80.82" style="stroke: #000000; stroke-width: 0.5"/>
      </g>
     </g>
    </g>
    <g id="ytick_5">
     <g id="line2d_56">
      <g>
       <use xlink:href="#m1c14f6b1c0" x="30.184287" y="74.88" style="stroke: #000000; stroke-width: 0.5"/>
      </g>
     </g>
     <g id="line2d_57">
      <g>
       <use xlink:href="#m4830f53e3b" x="225.484287" y="74.88" style="stroke: #000000; stroke-width: 0.5"/>
      </g>
     </g>
    </g>
    <g id="ytick_6">
     <g id="line2d_58">
      <g>
       <use xlink:href="#m1c14f6b1c0" x="30.184287" y="68.94" style="stroke: #000000; stroke-width: 0.5"/>
      </g>
     </g>
     <g id="line2d_59">
      <g>
       <use xlink:href="#m4830f53e3b" x="225.484287" y="68.94" style="stroke: #000000; stroke-width: 0.5"/>
      </g>
     </g>
    </g>
    <g id="ytick_7">
     <g id="line2d_60">
      <g>
       <use xlink:href="#m1c14f6b1c0" x="30.184287" y="63" style="stroke: #000000; stroke-width: 0.5"/>
      </g>
     </g>
     <g id="line2d_61">
      <g>
       <use xlink:href="#m4830f53e3b" x="225.484287" y="63" style="stroke: #000000; stroke-width: 0.5"/>
      </g>
     </g>
    </g>
    <g id="ytick_8">
     <g id="line2d_62">
      <g>
       <use xlink:href="#m1c14f6b1c0" x="30.184287" y="51.12" style="stroke: #000000; stroke-width: 0.5"/>
      </g>
     </g>
     <g id="line2d_63">
      <g>
       <use xlink:href="#m4830f53e3b" x="225.484287" y="51.12" style="stroke: #000000; stroke-width: 0.5"/>
      </g>
     </g>
    </g>
    <g id="ytick_9">
     <g id="line2d_64">
      <g>
       <use xlink:href="#m1c14f6b1c0" x="30.184287" y="45.18" style="stroke: #000000; stroke-width: 0.5"/>
      </g>
     </g>
     <g id="line2d_65">
      <g>
       <use xlink:href="#m4830f53e3b" x="225.484287" y="45.18" style="stroke: #000000; stroke-width: 0.5"/>
      </g>
     </g>
    </g>
    <g id="ytick_10">
     <g id="line2d_66">
      <g>
       <use xlink:href="#m1c14f6b1c0" x="30.184287" y="39.24" style="stroke: #000000; stroke-width: 0.5"/>
      </g>
     </g>
     <g id="line2d_67">
      <g>
       <use xlink:href="#m4830f53e3b" x="225.484287" y="39.24" style="stroke: #000000; stroke-width: 0.5"/>
      </g>
     </g>
    </g>
    <g id="ytick_11">
     <g id="line2d_68">
      <g>
       <use xlink:href="#m1c14f6b1c0" x="30.184287" y="33.3" style="stroke: #000000; stroke-width: 0.5"/>
      </g>
     </g>
     <g id="line2d_69">
      <g>
       <use xlink:href="#m4830f53e3b" x="225.484287" y="33.3" style="stroke: #000000; stroke-width: 0.5"/>
      </g>
     </g>
    </g>
    <g id="ytick_12">
     <g id="line2d_70">
      <g>
       <use xlink:href="#m1c14f6b1c0" x="30.184287" y="21.42" style="stroke: #000000; stroke-width: 0.5"/>
      </g>
     </g>
     <g id="line2d_71">
      <g>
       <use xlink:href="#m4830f53e3b" x="225.484287" y="21.42" style="stroke: #000000; stroke-width: 0.5"/>
      </g>
     </g>
    </g>
    <g id="ytick_13">
     <g id="line2d_72">
      <g>
       <use xlink:href="#m1c14f6b1c0" x="30.184287" y="15.48" style="stroke: #000000; stroke-width: 0.5"/>
      </g>
     </g>
     <g id="line2d_73">
      <g>
       <use xlink:href="#m4830f53e3b" x="225.484287" y="15.48" style="stroke: #000000; stroke-width: 0.5"/>
      </g>
     </g>
    </g>
    <g id="ytick_14">
     <g id="line2d_74">
      <g>
       <use xlink:href="#m1c14f6b1c0" x="30.184287" y="9.54" style="stroke: #000000; stroke-width: 0.5"/>
      </g>
     </g>
     <g id="line2d_75">
      <g>
       <use xlink:href="#m4830f53e3b" x="225.484287" y="9.54" style="stroke: #000000; stroke-width: 0.5"/>
      </g>
     </g>
    </g>
    <g id="ytick_15">
     <g id="line2d_76">
      <g>
       <use xlink:href="#m1c14f6b1c0" x="30.184287" y="3.6" style="stroke: #000000; stroke-width: 0.5"/>
      </g>
     </g>
     <g id="line2d_77">
      <g>
       <use xlink:href="#m4830f53e3b" x="225.484287" y="3.6" style="stroke: #000000; stroke-width: 0.5"/>
      </g>
     </g>
    </g>
    <g id="text_10">
     <!-- Throughput (tasks/sec) -->
     <g transform="translate(9.003656 81.814274) rotate(-90) scale(0.08 -0.08)">
      <defs>
       <path id="NimbusRomNo9L-Regu-68" d="M 1005 2222 
C 1274 2516 1466 2624 1715 2624 
C 2035 2624 2195 2395 2195 1948 
L 2195 684 
C 2195 250 2131 166 1760 128 
L 1760 32 
L 3117 32 
L 3117 128 
C 2771 192 2733 243 2733 684 
L 2733 1954 
C 2733 2625 2464 2970 1946 2970 
C 1568 2970 1299 2816 1005 2432 
L 1005 4390 
L 973 4409 
C 755 4332 595 4281 237 4179 
L 64 4128 
L 64 4026 
C 90 4032 109 4032 141 4032 
C 416 4032 467 3980 467 3705 
L 467 686 
C 467 237 429 179 58 128 
L 58 32 
L 1440 32 
L 1440 128 
C 1069 166 1005 243 1005 684 
L 1005 2222 
z
" transform="scale(0.015625)"/>
       <path id="NimbusRomNo9L-Regu-72" d="M 45 2496 
C 134 2515 192 2522 269 2522 
C 429 2522 486 2419 486 2138 
L 486 538 
C 486 218 442 173 32 96 
L 32 0 
L 1568 0 
L 1568 102 
C 1133 102 1024 199 1024 565 
L 1024 2013 
C 1024 2219 1299 2541 1472 2541 
C 1510 2541 1568 2509 1638 2445 
C 1741 2355 1811 2317 1894 2317 
C 2048 2317 2144 2426 2144 2605 
C 2144 2816 2010 2944 1792 2944 
C 1523 2944 1338 2797 1024 2343 
L 1024 2931 
L 992 2944 
C 653 2803 422 2721 45 2599 
L 45 2496 
z
" transform="scale(0.015625)"/>
       <path id="NimbusRomNo9L-Regu-6f" d="M 1600 2944 
C 768 2944 186 2330 186 1446 
C 186 582 781 -64 1587 -64 
C 2394 -64 3008 614 3008 1498 
C 3008 2336 2419 2944 1600 2944 
z
M 1517 2765 
C 2054 2765 2432 2150 2432 1274 
C 2432 550 2144 115 1664 115 
C 1414 115 1178 269 1043 525 
C 864 858 762 1306 762 1760 
C 762 2368 1062 2765 1517 2765 
z
" transform="scale(0.015625)"/>
       <path id="NimbusRomNo9L-Regu-67" d="M 3008 2496 
L 3008 2746 
L 2515 2746 
C 2387 2746 2291 2763 2163 2802 
L 2022 2847 
C 1850 2903 1677 2931 1510 2931 
C 915 2931 442 2467 442 1881 
C 442 1476 614 1230 1037 1018 
C 915 906 800 799 762 768 
C 550 588 467 463 467 338 
C 467 206 544 131 806 6 
C 352 -329 179 -543 179 -781 
C 179 -1124 678 -1408 1286 -1408 
C 1766 -1408 2266 -1238 2598 -962 
C 2842 -759 2950 -548 2950 -299 
C 2950 108 2650 384 2176 384 
L 1350 384 
C 1011 384 851 443 851 548 
C 851 678 1062 908 1235 960 
C 1293 953 1338 947 1357 947 
C 1478 934 1562 928 1600 928 
C 1837 928 2093 1026 2291 1203 
C 2502 1387 2598 1617 2598 1945 
C 2598 2135 2566 2286 2477 2496 
L 3008 2496 
z
M 941 -13 
C 1152 -58 1664 -96 1978 -96 
C 2560 -96 2771 -180 2771 -414 
C 2771 -791 2285 -1043 1562 -1043 
C 998 -1043 627 -855 627 -570 
C 627 -420 672 -336 941 -13 
z
M 973 2145 
C 973 2526 1152 2752 1446 2752 
C 1645 2752 1811 2642 1914 2449 
C 2029 2223 2106 1927 2106 1675 
C 2106 1314 1920 1088 1626 1088 
C 1242 1088 973 1507 973 2126 
L 973 2145 
z
" transform="scale(0.015625)"/>
       <path id="NimbusRomNo9L-Regu-70" d="M 58 2516 
C 115 2522 160 2522 218 2522 
C 435 2522 480 2458 480 2155 
L 480 -855 
C 480 -1189 410 -1261 32 -1299 
L 32 -1408 
L 1581 -1408 
L 1581 -1293 
C 1101 -1293 1018 -1222 1018 -816 
L 1018 199 
C 1242 -13 1395 -77 1664 -77 
C 2419 -77 3008 643 3008 1575 
C 3008 2372 2560 2944 1939 2944 
C 1581 2944 1299 2784 1018 2438 
L 1018 2931 
L 979 2944 
C 634 2810 410 2726 58 2618 
L 58 2516 
z
M 1018 2136 
C 1018 2329 1376 2560 1670 2560 
C 2144 2560 2458 2071 2458 1324 
C 2458 611 2144 128 1683 128 
C 1382 128 1018 359 1018 552 
L 1018 2136 
z
" transform="scale(0.015625)"/>
       <path id="NimbusRomNo9L-Regu-61" d="M 2829 423 
C 2720 333 2643 301 2547 301 
C 2400 301 2355 390 2355 672 
L 2355 1920 
C 2355 2253 2323 2438 2227 2592 
C 2086 2822 1811 2944 1434 2944 
C 832 2944 358 2630 358 2227 
C 358 2080 486 1952 634 1952 
C 787 1952 922 2080 922 2221 
C 922 2246 915 2278 909 2323 
C 896 2381 890 2432 890 2477 
C 890 2650 1094 2790 1350 2790 
C 1664 2790 1837 2605 1837 2259 
L 1837 1869 
C 851 1472 742 1421 467 1178 
C 326 1050 237 832 237 621 
C 237 218 518 -64 909 -64 
C 1190 -64 1453 70 1843 403 
C 1875 70 1990 -64 2253 -64 
C 2470 -64 2605 13 2829 256 
L 2829 423 
z
M 1837 783 
C 1837 584 1805 526 1670 449 
C 1517 359 1338 301 1203 301 
C 979 301 800 520 800 796 
L 800 822 
C 800 1201 1062 1433 1837 1715 
L 1837 783 
z
" transform="scale(0.015625)"/>
       <path id="NimbusRomNo9L-Regu-6b" d="M 45 3987 
C 128 3994 186 4000 250 4000 
C 461 4000 525 3917 525 3610 
L 525 525 
C 525 192 506 173 45 96 
L 45 0 
L 1542 0 
L 1542 102 
L 1414 102 
C 1158 102 1062 193 1062 419 
L 1062 1606 
L 1958 415 
L 1978 389 
C 1990 370 2003 351 2022 331 
C 2074 267 2093 229 2093 198 
C 2093 140 2035 102 1958 102 
L 1837 102 
L 1837 0 
L 3232 0 
L 3232 102 
C 2950 102 2752 225 2483 553 
L 1504 1805 
L 1690 1978 
C 2144 2400 2541 2694 2726 2746 
C 2822 2771 2912 2784 3021 2784 
L 3072 2784 
L 3072 2880 
L 1766 2880 
L 1766 2784 
C 2016 2784 2086 2758 2086 2669 
C 2086 2618 2029 2528 1939 2451 
L 1062 1670 
L 1062 4358 
L 1037 4371 
C 794 4294 608 4243 237 4141 
L 45 4090 
L 45 3987 
z
" transform="scale(0.015625)"/>
       <path id="NimbusRomNo9L-Regu-2f" d="M 1837 4352 
L 1408 4352 
L -58 -64 
L 378 -64 
L 1837 4352 
z
" transform="scale(0.015625)"/>
       <path id="NimbusRomNo9L-Regu-63" d="M 2547 998 
C 2240 550 2010 397 1645 397 
C 1062 397 653 909 653 1645 
C 653 2304 1005 2758 1523 2758 
C 1754 2758 1837 2688 1901 2451 
L 1939 2310 
C 1990 2131 2106 2016 2240 2016 
C 2406 2016 2547 2138 2547 2285 
C 2547 2643 2099 2944 1562 2944 
C 1248 2944 922 2816 659 2586 
C 339 2304 160 1869 160 1363 
C 160 531 666 -64 1376 -64 
C 1664 -64 1920 38 2150 237 
C 2323 390 2445 563 2637 941 
L 2547 998 
z
" transform="scale(0.015625)"/>
      </defs>
      <use xlink:href="#NimbusRomNo9L-Regu-54" transform="scale(0.996264)"/>
      <use xlink:href="#NimbusRomNo9L-Regu-68" transform="translate(60.871631 0) scale(0.996264)"/>
      <use xlink:href="#NimbusRomNo9L-Regu-72" transform="translate(110.684831 0) scale(0.996264)"/>
      <use xlink:href="#NimbusRomNo9L-Regu-6f" transform="translate(143.860061 0) scale(0.996264)"/>
      <use xlink:href="#NimbusRomNo9L-Regu-75" transform="translate(193.673261 0) scale(0.996264)"/>
      <use xlink:href="#NimbusRomNo9L-Regu-67" transform="translate(243.486462 0) scale(0.996264)"/>
      <use xlink:href="#NimbusRomNo9L-Regu-68" transform="translate(293.299662 0) scale(0.996264)"/>
      <use xlink:href="#NimbusRomNo9L-Regu-70" transform="translate(343.112863 0) scale(0.996264)"/>
      <use xlink:href="#NimbusRomNo9L-Regu-75" transform="translate(392.926063 0) scale(0.996264)"/>
      <use xlink:href="#NimbusRomNo9L-Regu-74" transform="translate(442.739264 0) scale(0.996264)"/>
      <use xlink:href="#NimbusRomNo9L-Regu-28" transform="translate(495.341034 0) scale(0.996264)"/>
      <use xlink:href="#NimbusRomNo9L-Regu-74" transform="translate(528.516263 0) scale(0.996264)"/>
      <use xlink:href="#NimbusRomNo9L-Regu-61" transform="translate(556.211433 0) scale(0.996264)"/>
      <use xlink:href="#NimbusRomNo9L-Regu-73" transform="translate(600.445002 0) scale(0.996264)"/>
      <use xlink:href="#NimbusRomNo9L-Regu-6b" transform="translate(639.198708 0) scale(0.996264)"/>
      <use xlink:href="#NimbusRomNo9L-Regu-73" transform="translate(689.011908 0) scale(0.996264)"/>
      <use xlink:href="#NimbusRomNo9L-Regu-2f" transform="translate(727.765615 0) scale(0.996264)"/>
      <use xlink:href="#NimbusRomNo9L-Regu-73" transform="translate(755.460784 0) scale(0.996264)"/>
      <use xlink:href="#NimbusRomNo9L-Regu-65" transform="translate(794.21449 0) scale(0.996264)"/>
      <use xlink:href="#NimbusRomNo9L-Regu-63" transform="translate(838.448059 0) scale(0.996264)"/>
      <use xlink:href="#NimbusRomNo9L-Regu-29" transform="translate(882.681628 0) scale(0.996264)"/>
     </g>
    </g>
   </g>
   <g id="line2d_78">
    <path d="M 39.06156 86.76 
L 40.516851 86.1066 
L 41.972141 77.0778 
L 43.427432 65.2572 
L 44.882722 51.2388 
L 46.338013 39.7746 
L 47.793304 26.766 
L 49.248594 22.608 
L 50.703885 20.826 
L 52.159175 19.638 
L 53.614466 16.668 
L 55.069757 16.668 
L 56.525047 16.074 
L 57.980338 16.668 
L 59.435628 17.262 
L 60.890919 17.262 
L 62.34621 17.262 
L 63.8015 17.262 
L 65.256791 15.48 
L 66.712082 15.48 
L 68.167372 16.668 
L 69.622663 16.074 
L 71.077953 15.48 
L 72.533244 15.48 
L 73.988535 16.074 
L 75.443825 14.886 
L 76.899116 14.886 
L 78.354406 16.668 
L 79.809697 18.45 
L 81.264988 18.45 
L 82.720278 19.638 
L 84.175569 20.826 
L 85.630859 19.638 
L 87.08615 18.45 
L 88.541441 18.45 
L 89.996731 17.856 
L 91.452022 17.262 
L 92.907313 18.45 
L 94.362603 19.638 
L 95.817894 17.856 
L 97.273184 18.45 
L 98.728475 19.044 
L 100.183766 18.45 
L 101.639056 18.45 
L 103.094347 19.638 
L 104.549637 19.044 
L 106.004928 18.45 
L 107.460219 18.45 
L 108.915509 18.45 
L 110.3708 19.044 
L 111.82609 19.638 
L 113.281381 17.856 
L 114.736672 19.638 
L 116.191962 19.638 
L 117.647253 18.45 
L 119.102544 17.856 
L 120.557834 20.232 
L 122.013125 18.45 
L 123.468415 18.45 
L 124.923706 19.044 
L 126.378997 19.044 
L 127.834287 20.232 
L 129.289578 23.796 
L 130.744868 25.578 
L 132.200159 29.0232 
L 133.65545 34.488 
L 135.11074 38.7054 
L 136.566031 44.6454 
L 138.021321 52.4862 
L 139.476612 59.5548 
L 140.931903 65.6136 
L 142.387193 70.9002 
L 143.842484 74.5236 
L 145.297775 76.7214 
L 146.753065 78.5034 
L 148.208356 79.929 
L 149.663646 81.2358 
L 151.118937 81.81792 
L 152.574228 82.62576 
L 154.029518 83.36232 
L 155.484809 84.15828 
L 156.940099 84.81168 
L 158.39539 85.59576 
L 159.850681 85.97592 
L 161.305971 86.13036 
L 162.761262 86.23728 
L 164.216552 86.35608 
L 165.671843 86.45112 
L 167.127134 86.53428 
L 168.582424 86.7006 
L 170.037715 86.76 
" clip-path="url(#p43380f8707)" style="fill: none; stroke: #000000; stroke-linecap: square"/>
   </g>
   <g id="line2d_79">
    <path d="M 39.06156 86.76 
L 40.516851 86.68872 
L 41.972141 79.038 
L 43.427432 68.5836 
L 44.882722 56.8224 
L 46.338013 43.992 
L 47.793304 31.9338 
L 49.248594 26.172 
L 50.703885 23.202 
L 52.159175 22.014 
L 53.614466 19.044 
L 55.069757 17.262 
L 56.525047 16.668 
L 57.980338 16.074 
L 59.435628 15.48 
L 60.890919 16.668 
L 62.34621 16.668 
L 63.8015 16.668 
L 65.256791 16.074 
L 66.712082 16.668 
L 68.167372 17.262 
L 69.622663 19.638 
L 71.077953 20.826 
L 72.533244 23.202 
L 73.988535 24.39 
L 75.443825 24.39 
L 76.899116 25.578 
L 78.354406 25.578 
L 79.809697 24.39 
L 81.264988 24.984 
L 82.720278 23.202 
L 84.175569 20.826 
L 85.630859 20.826 
L 87.08615 19.638 
L 88.541441 18.45 
L 89.996731 17.856 
L 91.452022 18.45 
L 92.907313 17.262 
L 94.362603 18.45 
L 95.817894 18.45 
L 97.273184 19.044 
L 98.728475 19.638 
L 100.183766 19.638 
L 101.639056 19.044 
L 103.094347 18.45 
L 104.549637 18.45 
L 106.004928 17.856 
L 107.460219 17.856 
L 108.915509 18.45 
L 110.3708 19.044 
L 111.82609 17.856 
L 113.281381 17.856 
L 114.736672 18.45 
L 116.191962 17.262 
L 117.647253 16.074 
L 119.102544 16.668 
L 120.557834 16.668 
L 122.013125 17.262 
L 123.468415 17.856 
L 124.923706 19.638 
L 126.378997 20.826 
L 127.834287 20.826 
L 129.289578 20.826 
L 130.744868 20.232 
L 132.200159 20.826 
L 133.65545 24.39 
L 135.11074 28.0134 
L 136.566031 33.597 
L 138.021321 43.2198 
L 139.476612 52.1298 
L 140.931903 58.842 
L 142.387193 66.7422 
L 143.842484 72.5634 
L 145.297775 75.5928 
L 146.753065 77.9094 
L 148.208356 79.4538 
L 149.663646 80.1072 
L 151.118937 80.7012 
L 152.574228 81.18828 
L 154.029518 82.15056 
L 155.484809 82.85148 
L 156.940099 83.9088 
L 158.39539 84.93048 
L 159.850681 85.78584 
L 161.305971 85.97592 
L 162.761262 86.11848 
L 164.216552 86.27292 
L 165.671843 86.37984 
L 167.127134 86.48676 
L 168.582424 86.61744 
L 170.037715 86.73624 
L 171.493006 86.76 
" clip-path="url(#p43380f8707)" style="fill: none; stroke-dasharray: 3.7,1.6; stroke-dashoffset: 0; stroke: #ff0000"/>
   </g>
   <g id="line2d_80">
    <path d="M 39.06156 86.76 
L 40.516851 86.5818 
L 41.972141 77.3154 
L 43.427432 66.2076 
L 44.882722 54.2088 
L 46.338013 41.9724 
L 47.793304 29.7954 
L 49.248594 27.36 
L 50.703885 25.578 
L 52.159175 24.39 
L 53.614466 23.202 
L 55.069757 21.42 
L 56.525047 18.45 
L 57.980338 16.074 
L 59.435628 14.886 
L 60.890919 14.292 
L 62.34621 14.292 
L 63.8015 16.074 
L 65.256791 17.856 
L 66.712082 18.45 
L 68.167372 22.014 
L 69.622663 28.4886 
L 71.077953 34.5474 
L 72.533244 39.8934 
L 73.988535 49.7538 
L 75.443825 52.3674 
L 76.899116 53.3772 
L 78.354406 52.1298 
L 79.809697 51.8328 
L 81.264988 51.0606 
L 82.720278 51.8328 
L 84.175569 46.5462 
L 85.630859 43.3386 
L 87.08615 39.7746 
L 88.541441 37.6956 
L 89.996731 34.3098 
L 91.452022 34.0128 
L 92.907313 34.191 
L 94.362603 35.082 
L 95.817894 34.7256 
L 97.273184 34.5474 
L 98.728475 34.6662 
L 100.183766 32.706 
L 101.639056 28.251 
L 103.094347 25.578 
L 104.549637 21.42 
L 106.004928 18.45 
L 107.460219 19.044 
L 108.915509 18.45 
L 110.3708 18.45 
L 111.82609 17.856 
L 113.281381 18.45 
L 114.736672 16.668 
L 116.191962 18.45 
L 117.647253 18.45 
L 119.102544 20.232 
L 120.557834 19.638 
L 122.013125 19.044 
L 123.468415 17.262 
L 124.923706 16.668 
L 126.378997 16.074 
L 127.834287 16.668 
L 129.289578 18.45 
L 130.744868 19.638 
L 132.200159 20.826 
L 133.65545 21.42 
L 135.11074 20.232 
L 136.566031 18.45 
L 138.021321 19.044 
L 139.476612 19.044 
L 140.931903 18.45 
L 142.387193 19.638 
L 143.842484 23.796 
L 145.297775 30.0924 
L 146.753065 38.1708 
L 148.208356 47.9124 
L 149.663646 56.763 
L 151.118937 64.0692 
L 152.574228 68.8212 
L 154.029518 72.9198 
L 155.484809 75.771 
L 156.940099 78.3846 
L 158.39539 80.1666 
L 159.850681 80.92692 
L 161.305971 81.87732 
L 162.761262 82.40004 
L 164.216552 83.04156 
L 165.671843 83.493 
L 167.127134 84.27708 
L 168.582424 84.82356 
L 170.037715 85.4532 
L 171.493006 85.95216 
L 172.948296 86.27292 
L 174.403587 86.49864 
L 175.858877 86.5818 
L 177.314168 86.72436 
L 178.769459 86.74812 
L 180.224749 86.76 
" clip-path="url(#p43380f8707)" style="fill: none; stroke-dasharray: 1,1.65; stroke-dashoffset: 0; stroke: #0000ff"/>
   </g>
   <g id="line2d_81">
    <path d="M 39.06156 86.76 
L 40.516851 84.88296 
L 41.972141 73.9296 
L 43.427432 60.8616 
L 44.882722 46.6056 
L 46.338013 32.5872 
L 47.793304 20.826 
L 49.248594 18.45 
L 50.703885 17.262 
L 52.159175 17.856 
L 53.614466 17.262 
L 55.069757 16.668 
L 56.525047 16.668 
L 57.980338 16.074 
L 59.435628 16.074 
L 60.890919 16.668 
L 62.34621 16.668 
L 63.8015 14.886 
L 65.256791 14.886 
L 66.712082 15.48 
L 68.167372 26.172 
L 69.622663 39.24 
L 71.077953 52.9614 
L 72.533244 64.4256 
L 73.988535 86.492106 
L 92.907313 86.45409 
L 94.362603 82.42974 
L 95.817894 78.741 
L 97.273184 76.0086 
L 98.728475 73.7514 
L 100.183766 71.4348 
L 101.639056 70.9596 
L 103.094347 70.9596 
L 104.549637 70.6032 
L 106.004928 69.6528 
L 107.460219 69.1776 
L 108.915509 68.5836 
L 110.3708 67.0392 
L 111.82609 63.297 
L 113.281381 60.3864 
L 114.736672 57.4164 
L 116.191962 53.9712 
L 117.647253 51.5952 
L 119.102544 51.2982 
L 120.557834 51.5952 
L 122.013125 51.1794 
L 123.468415 51.1794 
L 124.923706 52.1298 
L 126.378997 51.417 
L 127.834287 50.9418 
L 129.289578 48.15 
L 130.744868 44.1108 
L 132.200159 41.022 
L 133.65545 39.2994 
L 135.11074 36.6858 
L 136.566031 36.0324 
L 138.021321 36.4482 
L 139.476612 37.0422 
L 140.931903 37.2204 
L 142.387193 37.6956 
L 143.842484 37.3986 
L 145.297775 35.7948 
L 146.753065 30.627 
L 148.208356 26.766 
L 149.663646 23.796 
L 151.118937 20.232 
L 152.574228 18.45 
L 154.029518 17.262 
L 155.484809 17.262 
L 156.940099 17.262 
L 158.39539 16.668 
L 159.850681 16.074 
L 161.305971 17.262 
L 162.761262 17.262 
L 164.216552 17.856 
L 165.671843 19.044 
L 167.127134 20.232 
L 168.582424 20.826 
L 170.037715 20.826 
L 171.493006 19.638 
L 172.948296 19.638 
L 174.403587 17.856 
L 175.858877 16.668 
L 177.314168 16.074 
L 178.769459 16.668 
L 180.224749 17.262 
L 181.68004 19.638 
L 183.13533 26.766 
L 184.590621 36.0918 
L 186.045912 45.8928 
L 187.501202 56.169 
L 188.956493 66.1482 
L 190.411783 72.0882 
L 191.867074 75.474 
L 193.322365 77.6718 
L 194.777655 79.2756 
L 196.232946 80.3448 
L 197.688237 81.09324 
L 199.143527 81.9486 
L 200.598818 82.82772 
L 202.054108 83.83752 
L 203.509399 84.69288 
L 204.96469 85.3938 
L 206.41998 85.9284 
L 207.875271 86.2254 
L 209.330561 86.3442 
L 210.785852 86.4036 
L 212.241143 86.49864 
L 213.696433 86.59368 
L 215.151724 86.73624 
L 216.607014 86.76 
" clip-path="url(#p43380f8707)" style="fill: none; stroke-dasharray: 6.4,1.6,1,1.6; stroke-dashoffset: 0; stroke: #008000"/>
   </g>
   <g id="patch_3">
    <path d="M 30.184287 86.76 
L 30.184287 3.6 
" style="fill: none; stroke: #000000; stroke-width: 0.5; stroke-linejoin: miter; stroke-linecap: square"/>
   </g>
   <g id="patch_4">
    <path d="M 225.484287 86.76 
L 225.484287 3.6 
" style="fill: none; stroke: #000000; stroke-width: 0.5; stroke-linejoin: miter; stroke-linecap: square"/>
   </g>
   <g id="patch_5">
    <path d="M 30.184287 86.76 
L 225.484287 86.76 
" style="fill: none; stroke: #000000; stroke-width: 0.5; stroke-linejoin: miter; stroke-linecap: square"/>
   </g>
   <g id="patch_6">
    <path d="M 30.184287 3.6 
L 225.484287 3.6 
" style="fill: none; stroke: #000000; stroke-width: 0.5; stroke-linejoin: miter; stroke-linecap: square"/>
   </g>
   <g id="legend_1">
    <g id="line2d_82">
     <path d="M 187.297517 9.6 
L 191.297517 9.6 
L 195.297517 9.6 
" style="fill: none; stroke: #000000; stroke-linecap: square"/>
    </g>
    <g id="text_11">
     <!-- 0\% -->
     <g transform="translate(201.697517 12.4) scale(0.08 -0.08)">
      <defs>
       <path id="NimbusRomNo9L-Regu-25" d="M 4282 2368 
C 3558 2368 2874 1622 2874 824 
C 2874 325 3181 0 3642 0 
C 3930 0 4166 102 4390 325 
C 4730 670 4941 1187 4941 1686 
C 4941 2120 4698 2368 4282 2368 
z
M 4326 2164 
C 4570 2164 4774 1934 4774 1654 
C 4774 1290 4614 856 4371 556 
C 4166 301 3981 192 3750 192 
C 3520 192 3360 357 3360 601 
C 3360 939 3539 1462 3776 1793 
C 3949 2048 4128 2164 4326 2164 
z
M 4058 4320 
L 3808 4320 
C 3462 4008 3206 3904 2810 3904 
C 2554 3904 2406 3946 2253 4064 
C 2086 4194 2003 4224 1805 4224 
C 1075 4224 390 3468 390 2662 
C 390 2217 730 1856 1146 1856 
C 1421 1856 1709 1984 1920 2209 
C 2253 2549 2458 3056 2458 3526 
C 2458 3615 2445 3693 2413 3808 
C 2528 3763 2643 3744 2829 3744 
C 3110 3744 3277 3788 3533 3931 
L 1286 -96 
L 1594 -96 
L 4058 4320 
z
M 2240 3829 
C 2278 3702 2298 3607 2298 3518 
C 2298 2802 1773 2073 1254 2073 
C 1030 2073 877 2231 877 2460 
C 877 2726 1005 3157 1178 3474 
C 1363 3816 1606 4032 1805 4032 
C 1837 4032 1850 4025 1888 3993 
C 1978 3911 2054 3879 2240 3829 
z
" transform="scale(0.015625)"/>
      </defs>
      <use xlink:href="#NimbusRomNo9L-Regu-30" transform="scale(0.996264)"/>
      <use xlink:href="#NimbusRomNo9L-Regu-25" transform="translate(49.8132 0) scale(0.996264)"/>
     </g>
    </g>
    <g id="line2d_83">
     <path d="M 187.297517 20.925463 
L 191.297517 20.925463 
L 195.297517 20.925463 
" style="fill: none; stroke-dasharray: 3.7,1.6; stroke-dashoffset: 0; stroke: #ff0000"/>
    </g>
    <g id="text_12">
     <!-- 12.5\% -->
     <g transform="translate(201.697517 23.725463) scale(0.08 -0.08)">
      <defs>
       <path id="NimbusRomNo9L-Regu-2e" d="M 800 646 
C 608 646 448 480 448 281 
C 448 96 608 -64 794 -64 
C 992 -64 1158 96 1158 281 
C 1158 480 992 646 800 646 
z
" transform="scale(0.015625)"/>
      </defs>
      <use xlink:href="#NimbusRomNo9L-Regu-31" transform="scale(0.996264)"/>
      <use xlink:href="#NimbusRomNo9L-Regu-32" transform="translate(49.8132 0) scale(0.996264)"/>
      <use xlink:href="#NimbusRomNo9L-Regu-2e" transform="translate(99.626401 0) scale(0.996264)"/>
      <use xlink:href="#NimbusRomNo9L-Regu-35" transform="translate(124.533001 0) scale(0.996264)"/>
      <use xlink:href="#NimbusRomNo9L-Regu-25" transform="translate(174.346202 0) scale(0.996264)"/>
     </g>
    </g>
    <g id="line2d_84">
     <path d="M 187.297517 32.250926 
L 191.297517 32.250926 
L 195.297517 32.250926 
" style="fill: none; stroke-dasharray: 1,1.65; stroke-dashoffset: 0; stroke: #0000ff"/>
    </g>
    <g id="text_13">
     <!-- 50\% -->
     <g transform="translate(201.697517 35.050926) scale(0.08 -0.08)">
      <use xlink:href="#NimbusRomNo9L-Regu-35" transform="scale(0.996264)"/>
      <use xlink:href="#NimbusRomNo9L-Regu-30" transform="translate(49.8132 0) scale(0.996264)"/>
      <use xlink:href="#NimbusRomNo9L-Regu-25" transform="translate(99.626401 0) scale(0.996264)"/>
     </g>
    </g>
    <g id="line2d_85">
     <path d="M 187.297517 43.576389 
L 191.297517 43.576389 
L 195.297517 43.576389 
" style="fill: none; stroke-dasharray: 6.4,1.6,1,1.6; stroke-dashoffset: 0; stroke: #008000"/>
    </g>
    <g id="text_14">
     <!-- 100\% -->
     <g transform="translate(201.697517 46.376389) scale(0.08 -0.08)">
      <use xlink:href="#NimbusRomNo9L-Regu-31" transform="scale(0.996264)"/>
      <use xlink:href="#NimbusRomNo9L-Regu-30" transform="translate(49.8132 0) scale(0.996264)"/>
      <use xlink:href="#NimbusRomNo9L-Regu-30" transform="translate(99.626401 0) scale(0.996264)"/>
      <use xlink:href="#NimbusRomNo9L-Regu-25" transform="translate(149.439601 0) scale(0.996264)"/>
     </g>
    </g>
   </g>
  </g>
 </g>
 <defs>
  <clipPath id="p43380f8707">
   <rect x="30.184287" y="3.6" width="195.3" height="83.16"/>
  </clipPath>
 </defs>
</svg>
