<?xml version="1.0" encoding="utf-8" standalone="no"?>
<!DOCTYPE svg PUBLIC "-//W3C//DTD SVG 1.1//EN"
  "http://www.w3.org/Graphics/SVG/1.1/DTD/svg11.dtd">
<svg xmlns:xlink="http://www.w3.org/1999/xlink" width="229.084287pt" height="112.118238pt" viewBox="0 0 229.084287 112.118238" xmlns="http://www.w3.org/2000/svg" version="1.1">
 <metadata>
  <rdf:RDF xmlns:dc="http://purl.org/dc/elements/1.1/" xmlns:cc="http://creativecommons.org/ns#" xmlns:rdf="http://www.w3.org/1999/02/22-rdf-syntax-ns#">
   <cc:Work>
    <dc:type rdf:resource="http://purl.org/dc/dcmitype/StillImage"/>
    <dc:date>2025-04-16T23:05:00.550372</dc:date>
    <dc:format>image/svg+xml</dc:format>
    <dc:creator>
     <cc:Agent>
      <dc:title>Matplotlib v3.9.1.post1, https://matplotlib.org/</dc:title>
     </cc:Agent>
    </dc:creator>
   </cc:Work>
  </rdf:RDF>
 </metadata>
 <defs>
  <style type="text/css">*{stroke-linejoin: round; stroke-linecap: butt}</style>
 </defs>
 <g id="figure_1">
  <g id="patch_1">
   <path d="M 0 112.118238 
L 229.084287 112.118238 
L 229.084287 -0 
L 0 -0 
z
" style="fill: #ffffff"/>
  </g>
  <g id="axes_1">
   <g id="patch_2">
    <path d="M 30.184287 86.76 
L 225.484287 86.76 
L 225.484287 3.6 
L 30.184287 3.6 
z
" style="fill: #ffffff"/>
   </g>
   <g id="line2d_1">
    <path d="M 30.184287 11.16 
L 225.484287 11.16 
" clip-path="url(#pe4eb7b6034)" style="fill: none; stroke: #808080; stroke-width: 0.2; stroke-linecap: square"/>
   </g>
   <g id="line2d_2">
    <path d="M 30.184287 48.96 
L 225.484287 48.96 
" clip-path="url(#pe4eb7b6034)" style="fill: none; stroke: #808080; stroke-width: 0.2; stroke-linecap: square"/>
   </g>
   <g id="line2d_3">
    <path d="M 41.460522 86.76 
L 41.460522 3.6 
" clip-path="url(#pe4eb7b6034)" style="fill: none; stroke-dasharray: 1.28,0.32,0.2,0.32; stroke-dashoffset: 0; stroke: #808080; stroke-width: 0.2"/>
   </g>
   <g id="line2d_4">
    <path d="M 65.4738 86.76 
L 65.4738 3.6 
" clip-path="url(#pe4eb7b6034)" style="fill: none; stroke-dasharray: 1.28,0.32,0.2,0.32; stroke-dashoffset: 0; stroke: #808080; stroke-width: 0.2"/>
   </g>
   <g id="line2d_5">
    <path d="M 125.02673 86.76 
L 125.02673 3.6 
" clip-path="url(#pe4eb7b6034)" style="fill: none; stroke-dasharray: 1.28,0.32,0.2,0.32; stroke-dashoffset: 0; stroke: #808080; stroke-width: 0.2"/>
   </g>
   <g id="line2d_6">
    <path d="M 108.152269 86.76 
L 108.152269 3.6 
" clip-path="url(#pe4eb7b6034)" style="fill: none; stroke-dasharray: 0.2,0.33; stroke-dashoffset: 0; stroke: #808080; stroke-width: 0.2"/>
   </g>
   <g id="line2d_7">
    <path d="M 30.184287 11.16 
L 225.484287 11.16 
" clip-path="url(#pe4eb7b6034)" style="fill: none; stroke: #808080; stroke-width: 0.2; stroke-linecap: square"/>
   </g>
   <g id="line2d_8">
    <path d="M 30.184287 48.96 
L 225.484287 48.96 
" clip-path="url(#pe4eb7b6034)" style="fill: none; stroke: #808080; stroke-width: 0.2; stroke-linecap: square"/>
   </g>
   <g id="line2d_9">
    <path d="M 41.460522 86.76 
L 41.460522 3.6 
" clip-path="url(#pe4eb7b6034)" style="fill: none; stroke-dasharray: 1.28,0.32,0.2,0.32; stroke-dashoffset: 0; stroke: #808080; stroke-width: 0.2"/>
   </g>
   <g id="line2d_10">
    <path d="M 65.4738 86.76 
L 65.4738 3.6 
" clip-path="url(#pe4eb7b6034)" style="fill: none; stroke-dasharray: 1.28,0.32,0.2,0.32; stroke-dashoffset: 0; stroke: #808080; stroke-width: 0.2"/>
   </g>
   <g id="line2d_11">
    <path d="M 125.02673 86.76 
L 125.02673 3.6 
" clip-path="url(#pe4eb7b6034)" style="fill: none; stroke-dasharray: 1.28,0.32,0.2,0.32; stroke-dashoffset: 0; stroke: #808080; stroke-width: 0.2"/>
   </g>
   <g id="line2d_12">
    <path d="M 98.68712 86.76 
L 98.68712 3.6 
" clip-path="url(#pe4eb7b6034)" style="fill: none; stroke-dasharray: 0.2,0.33; stroke-dashoffset: 0; stroke: #808080; stroke-width: 0.2"/>
   </g>
   <g id="line2d_13">
    <path d="M 30.184287 11.16 
L 225.484287 11.16 
" clip-path="url(#pe4eb7b6034)" style="fill: none; stroke: #808080; stroke-width: 0.2; stroke-linecap: square"/>
   </g>
   <g id="line2d_14">
    <path d="M 30.184287 48.96 
L 225.484287 48.96 
" clip-path="url(#pe4eb7b6034)" style="fill: none; stroke: #808080; stroke-width: 0.2; stroke-linecap: square"/>
   </g>
   <g id="line2d_15">
    <path d="M 41.460522 86.76 
L 41.460522 3.6 
" clip-path="url(#pe4eb7b6034)" style="fill: none; stroke-dasharray: 1.28,0.32,0.2,0.32; stroke-dashoffset: 0; stroke: #808080; stroke-width: 0.2"/>
   </g>
   <g id="line2d_16">
    <path d="M 65.4738 86.76 
L 65.4738 3.6 
" clip-path="url(#pe4eb7b6034)" style="fill: none; stroke-dasharray: 1.28,0.32,0.2,0.32; stroke-dashoffset: 0; stroke: #808080; stroke-width: 0.2"/>
   </g>
   <g id="line2d_17">
    <path d="M 125.02673 86.76 
L 125.02673 3.6 
" clip-path="url(#pe4eb7b6034)" style="fill: none; stroke-dasharray: 1.28,0.32,0.2,0.32; stroke-dashoffset: 0; stroke: #808080; stroke-width: 0.2"/>
   </g>
   <g id="line2d_18">
    <path d="M 216.607014 86.76 
L 216.607014 3.6 
" clip-path="url(#pe4eb7b6034)" style="fill: none; stroke-dasharray: 0.2,0.33; stroke-dashoffset: 0; stroke: #808080; stroke-width: 0.2"/>
   </g>
   <g id="matplotlib.axis_1">
    <g id="xtick_1">
     <g id="line2d_19">
      <defs>
       <path id="m0bea53fe53" d="M 0 0 
L 0 -3 
" style="stroke: #000000; stroke-width: 0.5"/>
      </defs>
      <g>
       <use xlink:href="#m0bea53fe53" x="70.756721" y="86.76" style="stroke: #000000; stroke-width: 0.5"/>
      </g>
     </g>
     <g id="line2d_20">
      <defs>
       <path id="m8701b1da77" d="M 0 0 
L 0 3 
" style="stroke: #000000; stroke-width: 0.5"/>
      </defs>
      <g>
       <use xlink:href="#m8701b1da77" x="70.756721" y="3.6" style="stroke: #000000; stroke-width: 0.5"/>
      </g>
     </g>
     <g id="text_1">
      <!-- $\mathdefault{100}$ -->
      <g transform="translate(64.779137 95.663656) scale(0.08 -0.08)">
       <defs>
        <path id="NimbusRomNo9L-Regu-31" d="M 1862 4339 
L 710 3757 
L 710 3667 
C 787 3699 858 3725 883 3738 
C 998 3783 1107 3808 1171 3808 
C 1306 3808 1363 3711 1363 3505 
L 1363 592 
C 1363 379 1312 232 1210 173 
C 1114 116 1024 96 755 96 
L 755 0 
L 2522 0 
L 2522 96 
C 2016 96 1914 160 1914 470 
L 1914 4327 
L 1862 4339 
z
" transform="scale(0.015625)"/>
        <path id="NimbusRomNo9L-Regu-30" d="M 1626 4352 
C 1274 4352 1005 4244 768 4020 
C 397 3661 154 2925 154 2176 
C 154 1479 365 730 666 372 
C 902 90 1229 -64 1600 -64 
C 1926 -64 2202 45 2432 269 
C 2803 621 3046 1364 3046 2138 
C 3046 3450 2464 4352 1626 4352 
z
M 1606 4186 
C 2144 4186 2432 3463 2432 2125 
C 2432 788 2150 103 1600 103 
C 1050 103 768 788 768 2119 
C 768 3476 1056 4186 1606 4186 
z
" transform="scale(0.015625)"/>
       </defs>
       <use xlink:href="#NimbusRomNo9L-Regu-31" transform="scale(0.996264)"/>
       <use xlink:href="#NimbusRomNo9L-Regu-30" transform="translate(49.8132 0) scale(0.996264)"/>
       <use xlink:href="#NimbusRomNo9L-Regu-30" transform="translate(99.626401 0) scale(0.996264)"/>
      </g>
     </g>
    </g>
    <g id="xtick_2">
     <g id="line2d_21">
      <g>
       <use xlink:href="#m0bea53fe53" x="118.783277" y="86.76" style="stroke: #000000; stroke-width: 0.5"/>
      </g>
     </g>
     <g id="line2d_22">
      <g>
       <use xlink:href="#m8701b1da77" x="118.783277" y="3.6" style="stroke: #000000; stroke-width: 0.5"/>
      </g>
     </g>
     <g id="text_2">
      <!-- $\mathdefault{200}$ -->
      <g transform="translate(112.805693 95.663656) scale(0.08 -0.08)">
       <defs>
        <path id="NimbusRomNo9L-Regu-32" d="M 3040 875 
L 2957 907 
C 2720 544 2637 486 2349 486 
L 819 486 
L 1894 1609 
C 2464 2202 2714 2687 2714 3185 
C 2714 3823 2195 4313 1530 4313 
C 1178 4313 845 4173 608 3918 
C 403 3700 307 3496 198 3043 
L 333 3011 
C 589 3636 819 3840 1261 3840 
C 1798 3840 2163 3476 2163 2940 
C 2163 2443 1869 1850 1331 1282 
L 192 77 
L 192 0 
L 2688 0 
L 3040 875 
z
" transform="scale(0.015625)"/>
       </defs>
       <use xlink:href="#NimbusRomNo9L-Regu-32" transform="scale(0.996264)"/>
       <use xlink:href="#NimbusRomNo9L-Regu-30" transform="translate(49.8132 0) scale(0.996264)"/>
       <use xlink:href="#NimbusRomNo9L-Regu-30" transform="translate(99.626401 0) scale(0.996264)"/>
      </g>
     </g>
    </g>
    <g id="xtick_3">
     <g id="line2d_23">
      <g>
       <use xlink:href="#m0bea53fe53" x="166.809833" y="86.76" style="stroke: #000000; stroke-width: 0.5"/>
      </g>
     </g>
     <g id="line2d_24">
      <g>
       <use xlink:href="#m8701b1da77" x="166.809833" y="3.6" style="stroke: #000000; stroke-width: 0.5"/>
      </g>
     </g>
     <g id="text_3">
      <!-- $\mathdefault{300}$ -->
      <g transform="translate(160.832249 95.663656) scale(0.08 -0.08)">
       <defs>
        <path id="NimbusRomNo9L-Regu-33" d="M 979 2138 
C 1357 2138 1504 2125 1658 2068 
C 2054 1927 2304 1562 2304 1120 
C 2304 583 1939 167 1466 167 
C 1293 167 1165 212 928 365 
C 736 480 627 525 518 525 
C 371 525 275 436 275 301 
C 275 77 550 -64 998 -64 
C 1491 -64 1997 103 2298 365 
C 2598 628 2765 999 2765 1428 
C 2765 1754 2662 2055 2477 2253 
C 2349 2394 2227 2471 1946 2592 
C 2387 2893 2547 3130 2547 3476 
C 2547 3994 2138 4352 1549 4352 
C 1229 4352 947 4244 717 4039 
C 525 3866 429 3699 288 3315 
L 384 3290 
C 646 3757 934 3968 1338 3968 
C 1754 3968 2042 3687 2042 3284 
C 2042 3053 1946 2823 1786 2663 
C 1594 2471 1414 2375 979 2221 
L 979 2138 
z
" transform="scale(0.015625)"/>
       </defs>
       <use xlink:href="#NimbusRomNo9L-Regu-33" transform="scale(0.996264)"/>
       <use xlink:href="#NimbusRomNo9L-Regu-30" transform="translate(49.8132 0) scale(0.996264)"/>
       <use xlink:href="#NimbusRomNo9L-Regu-30" transform="translate(99.626401 0) scale(0.996264)"/>
      </g>
     </g>
    </g>
    <g id="xtick_4">
     <g id="line2d_25">
      <g>
       <use xlink:href="#m0bea53fe53" x="214.83639" y="86.76" style="stroke: #000000; stroke-width: 0.5"/>
      </g>
     </g>
     <g id="line2d_26">
      <g>
       <use xlink:href="#m8701b1da77" x="214.83639" y="3.6" style="stroke: #000000; stroke-width: 0.5"/>
      </g>
     </g>
     <g id="text_4">
      <!-- $\mathdefault{400}$ -->
      <g transform="translate(208.858806 95.663656) scale(0.08 -0.08)">
       <defs>
        <path id="NimbusRomNo9L-Regu-34" d="M 3021 1497 
L 2368 1497 
L 2368 4352 
L 2086 4352 
L 77 1497 
L 77 1088 
L 1875 1088 
L 1875 32 
L 2368 32 
L 2368 1088 
L 3021 1088 
L 3021 1497 
z
M 1869 1497 
L 333 1497 
L 1869 3698 
L 1869 1497 
z
" transform="scale(0.015625)"/>
       </defs>
       <use xlink:href="#NimbusRomNo9L-Regu-34" transform="scale(0.996264)"/>
       <use xlink:href="#NimbusRomNo9L-Regu-30" transform="translate(49.8132 0) scale(0.996264)"/>
       <use xlink:href="#NimbusRomNo9L-Regu-30" transform="translate(99.626401 0) scale(0.996264)"/>
      </g>
     </g>
    </g>
    <g id="xtick_5">
     <g id="line2d_27">
      <defs>
       <path id="mb489be5c7c" d="M 0 0 
L 0 -1.5 
" style="stroke: #000000; stroke-width: 0.5"/>
      </defs>
      <g>
       <use xlink:href="#mb489be5c7c" x="32.335476" y="86.76" style="stroke: #000000; stroke-width: 0.5"/>
      </g>
     </g>
     <g id="line2d_28">
      <defs>
       <path id="mc95aa5093f" d="M 0 0 
L 0 1.5 
" style="stroke: #000000; stroke-width: 0.5"/>
      </defs>
      <g>
       <use xlink:href="#mc95aa5093f" x="32.335476" y="3.6" style="stroke: #000000; stroke-width: 0.5"/>
      </g>
     </g>
    </g>
    <g id="xtick_6">
     <g id="line2d_29">
      <g>
       <use xlink:href="#mb489be5c7c" x="41.940787" y="86.76" style="stroke: #000000; stroke-width: 0.5"/>
      </g>
     </g>
     <g id="line2d_30">
      <g>
       <use xlink:href="#mc95aa5093f" x="41.940787" y="3.6" style="stroke: #000000; stroke-width: 0.5"/>
      </g>
     </g>
    </g>
    <g id="xtick_7">
     <g id="line2d_31">
      <g>
       <use xlink:href="#mb489be5c7c" x="51.546098" y="86.76" style="stroke: #000000; stroke-width: 0.5"/>
      </g>
     </g>
     <g id="line2d_32">
      <g>
       <use xlink:href="#mc95aa5093f" x="51.546098" y="3.6" style="stroke: #000000; stroke-width: 0.5"/>
      </g>
     </g>
    </g>
    <g id="xtick_8">
     <g id="line2d_33">
      <g>
       <use xlink:href="#mb489be5c7c" x="61.15141" y="86.76" style="stroke: #000000; stroke-width: 0.5"/>
      </g>
     </g>
     <g id="line2d_34">
      <g>
       <use xlink:href="#mc95aa5093f" x="61.15141" y="3.6" style="stroke: #000000; stroke-width: 0.5"/>
      </g>
     </g>
    </g>
    <g id="xtick_9">
     <g id="line2d_35">
      <g>
       <use xlink:href="#mb489be5c7c" x="80.362032" y="86.76" style="stroke: #000000; stroke-width: 0.5"/>
      </g>
     </g>
     <g id="line2d_36">
      <g>
       <use xlink:href="#mc95aa5093f" x="80.362032" y="3.6" style="stroke: #000000; stroke-width: 0.5"/>
      </g>
     </g>
    </g>
    <g id="xtick_10">
     <g id="line2d_37">
      <g>
       <use xlink:href="#mb489be5c7c" x="89.967343" y="86.76" style="stroke: #000000; stroke-width: 0.5"/>
      </g>
     </g>
     <g id="line2d_38">
      <g>
       <use xlink:href="#mc95aa5093f" x="89.967343" y="3.6" style="stroke: #000000; stroke-width: 0.5"/>
      </g>
     </g>
    </g>
    <g id="xtick_11">
     <g id="line2d_39">
      <g>
       <use xlink:href="#mb489be5c7c" x="99.572655" y="86.76" style="stroke: #000000; stroke-width: 0.5"/>
      </g>
     </g>
     <g id="line2d_40">
      <g>
       <use xlink:href="#mc95aa5093f" x="99.572655" y="3.6" style="stroke: #000000; stroke-width: 0.5"/>
      </g>
     </g>
    </g>
    <g id="xtick_12">
     <g id="line2d_41">
      <g>
       <use xlink:href="#mb489be5c7c" x="109.177966" y="86.76" style="stroke: #000000; stroke-width: 0.5"/>
      </g>
     </g>
     <g id="line2d_42">
      <g>
       <use xlink:href="#mc95aa5093f" x="109.177966" y="3.6" style="stroke: #000000; stroke-width: 0.5"/>
      </g>
     </g>
    </g>
    <g id="xtick_13">
     <g id="line2d_43">
      <g>
       <use xlink:href="#mb489be5c7c" x="128.388588" y="86.76" style="stroke: #000000; stroke-width: 0.5"/>
      </g>
     </g>
     <g id="line2d_44">
      <g>
       <use xlink:href="#mc95aa5093f" x="128.388588" y="3.6" style="stroke: #000000; stroke-width: 0.5"/>
      </g>
     </g>
    </g>
    <g id="xtick_14">
     <g id="line2d_45">
      <g>
       <use xlink:href="#mb489be5c7c" x="137.9939" y="86.76" style="stroke: #000000; stroke-width: 0.5"/>
      </g>
     </g>
     <g id="line2d_46">
      <g>
       <use xlink:href="#mc95aa5093f" x="137.9939" y="3.6" style="stroke: #000000; stroke-width: 0.5"/>
      </g>
     </g>
    </g>
    <g id="xtick_15">
     <g id="line2d_47">
      <g>
       <use xlink:href="#mb489be5c7c" x="147.599211" y="86.76" style="stroke: #000000; stroke-width: 0.5"/>
      </g>
     </g>
     <g id="line2d_48">
      <g>
       <use xlink:href="#mc95aa5093f" x="147.599211" y="3.6" style="stroke: #000000; stroke-width: 0.5"/>
      </g>
     </g>
    </g>
    <g id="xtick_16">
     <g id="line2d_49">
      <g>
       <use xlink:href="#mb489be5c7c" x="157.204522" y="86.76" style="stroke: #000000; stroke-width: 0.5"/>
      </g>
     </g>
     <g id="line2d_50">
      <g>
       <use xlink:href="#mc95aa5093f" x="157.204522" y="3.6" style="stroke: #000000; stroke-width: 0.5"/>
      </g>
     </g>
    </g>
    <g id="xtick_17">
     <g id="line2d_51">
      <g>
       <use xlink:href="#mb489be5c7c" x="176.415145" y="86.76" style="stroke: #000000; stroke-width: 0.5"/>
      </g>
     </g>
     <g id="line2d_52">
      <g>
       <use xlink:href="#mc95aa5093f" x="176.415145" y="3.6" style="stroke: #000000; stroke-width: 0.5"/>
      </g>
     </g>
    </g>
    <g id="xtick_18">
     <g id="line2d_53">
      <g>
       <use xlink:href="#mb489be5c7c" x="186.020456" y="86.76" style="stroke: #000000; stroke-width: 0.5"/>
      </g>
     </g>
     <g id="line2d_54">
      <g>
       <use xlink:href="#mc95aa5093f" x="186.020456" y="3.6" style="stroke: #000000; stroke-width: 0.5"/>
      </g>
     </g>
    </g>
    <g id="xtick_19">
     <g id="line2d_55">
      <g>
       <use xlink:href="#mb489be5c7c" x="195.625767" y="86.76" style="stroke: #000000; stroke-width: 0.5"/>
      </g>
     </g>
     <g id="line2d_56">
      <g>
       <use xlink:href="#mc95aa5093f" x="195.625767" y="3.6" style="stroke: #000000; stroke-width: 0.5"/>
      </g>
     </g>
    </g>
    <g id="xtick_20">
     <g id="line2d_57">
      <g>
       <use xlink:href="#mb489be5c7c" x="205.231078" y="86.76" style="stroke: #000000; stroke-width: 0.5"/>
      </g>
     </g>
     <g id="line2d_58">
      <g>
       <use xlink:href="#mc95aa5093f" x="205.231078" y="3.6" style="stroke: #000000; stroke-width: 0.5"/>
      </g>
     </g>
    </g>
    <g id="xtick_21">
     <g id="line2d_59">
      <g>
       <use xlink:href="#mb489be5c7c" x="224.441701" y="86.76" style="stroke: #000000; stroke-width: 0.5"/>
      </g>
     </g>
     <g id="line2d_60">
      <g>
       <use xlink:href="#mc95aa5093f" x="224.441701" y="3.6" style="stroke: #000000; stroke-width: 0.5"/>
      </g>
     </g>
    </g>
    <g id="text_5">
     <!-- Round-trip latency (milliseconds) -->
     <g transform="translate(74.100372 106.792775) scale(0.08 -0.08)">
      <defs>
       <path id="NimbusRomNo9L-Regu-52" d="M 4218 121 
C 3974 140 3846 205 3661 424 
L 2342 2061 
C 2771 2143 2963 2219 3174 2388 
C 3379 2553 3501 2818 3501 3113 
C 3501 3385 3418 3618 3251 3801 
C 3008 4059 2477 4224 1875 4224 
L 109 4224 
L 109 4102 
C 589 4051 653 3981 653 3528 
L 653 765 
C 653 236 589 159 109 121 
L 109 0 
L 1882 0 
L 1882 134 
C 1389 134 1306 219 1306 692 
L 1306 1984 
L 1664 1984 
L 3187 0 
L 4218 0 
L 4218 121 
z
M 1306 3762 
C 1306 3937 1376 3987 1632 3987 
C 2432 3987 2803 3716 2803 3123 
C 2803 2807 2669 2542 2438 2423 
C 2144 2258 1920 2221 1306 2221 
L 1306 3762 
z
" transform="scale(0.015625)"/>
       <path id="NimbusRomNo9L-Regu-6f" d="M 1600 2944 
C 768 2944 186 2330 186 1446 
C 186 582 781 -64 1587 -64 
C 2394 -64 3008 614 3008 1498 
C 3008 2336 2419 2944 1600 2944 
z
M 1517 2765 
C 2054 2765 2432 2150 2432 1274 
C 2432 550 2144 115 1664 115 
C 1414 115 1178 269 1043 525 
C 864 858 762 1306 762 1760 
C 762 2368 1062 2765 1517 2765 
z
" transform="scale(0.015625)"/>
       <path id="NimbusRomNo9L-Regu-75" d="M 3066 320 
L 3034 320 
C 2739 320 2669 390 2669 685 
L 2669 2880 
L 1658 2880 
L 1658 2758 
C 2054 2758 2131 2694 2131 2375 
L 2131 875 
C 2131 697 2099 607 2010 537 
C 1837 397 1638 320 1446 320 
C 1197 320 992 537 992 805 
L 992 2880 
L 58 2880 
L 58 2778 
C 365 2778 454 2682 454 2387 
L 454 770 
C 454 263 762 -64 1229 -64 
C 1466 -64 1715 38 1888 211 
L 2163 486 
L 2163 -45 
L 2189 -58 
C 2509 70 2739 141 3066 230 
L 3066 320 
z
" transform="scale(0.015625)"/>
       <path id="NimbusRomNo9L-Regu-6e" d="M 102 2579 
C 141 2598 205 2605 275 2605 
C 454 2605 512 2509 512 2195 
L 512 608 
C 512 243 442 154 115 128 
L 115 32 
L 1472 32 
L 1472 128 
C 1146 154 1050 230 1050 461 
L 1050 2259 
C 1357 2547 1498 2624 1709 2624 
C 2022 2624 2176 2426 2176 2003 
L 2176 666 
C 2176 262 2093 154 1773 128 
L 1773 32 
L 3104 32 
L 3104 128 
C 2790 160 2714 237 2714 550 
L 2714 2016 
C 2714 2618 2432 2976 1958 2976 
C 1664 2976 1466 2867 1030 2458 
L 1030 2963 
L 986 2976 
C 672 2861 454 2790 102 2688 
L 102 2579 
z
" transform="scale(0.015625)"/>
       <path id="NimbusRomNo9L-Regu-64" d="M 2202 -64 
L 3142 269 
L 3142 365 
C 3027 365 3014 365 2995 365 
C 2765 365 2714 435 2714 731 
L 2714 4364 
L 2682 4377 
C 2374 4268 2150 4204 1741 4096 
L 1741 3994 
C 1792 4000 1830 4000 1882 4000 
C 2118 4000 2176 3936 2176 3672 
L 2176 2669 
C 1933 2874 1760 2944 1504 2944 
C 768 2944 173 2221 173 1312 
C 173 493 653 -64 1357 -64 
C 1715 -64 1958 64 2176 365 
L 2176 -45 
L 2202 -64 
z
M 2176 653 
C 2176 608 2131 531 2067 461 
C 1952 333 1792 269 1606 269 
C 1075 269 723 781 723 1568 
C 723 2291 1037 2765 1523 2765 
C 1862 2765 2176 2464 2176 2125 
L 2176 653 
z
" transform="scale(0.015625)"/>
       <path id="NimbusRomNo9L-Regu-2d" d="M 250 1619 
L 250 1216 
L 1824 1216 
L 1824 1619 
L 250 1619 
z
" transform="scale(0.015625)"/>
       <path id="NimbusRomNo9L-Regu-74" d="M 1632 2880 
L 986 2880 
L 986 3622 
C 986 3686 979 3706 941 3706 
C 896 3648 858 3590 813 3526 
C 570 3174 294 2867 192 2841 
C 122 2794 83 2748 83 2715 
C 83 2695 90 2682 109 2682 
L 448 2682 
L 448 751 
C 448 212 640 -64 1018 -64 
C 1331 -64 1574 90 1786 423 
L 1702 493 
C 1568 333 1459 269 1318 269 
C 1082 269 986 443 986 847 
L 986 2682 
L 1632 2682 
L 1632 2880 
z
" transform="scale(0.015625)"/>
       <path id="NimbusRomNo9L-Regu-72" d="M 45 2496 
C 134 2515 192 2522 269 2522 
C 429 2522 486 2419 486 2138 
L 486 538 
C 486 218 442 173 32 96 
L 32 0 
L 1568 0 
L 1568 102 
C 1133 102 1024 199 1024 565 
L 1024 2013 
C 1024 2219 1299 2541 1472 2541 
C 1510 2541 1568 2509 1638 2445 
C 1741 2355 1811 2317 1894 2317 
C 2048 2317 2144 2426 2144 2605 
C 2144 2816 2010 2944 1792 2944 
C 1523 2944 1338 2797 1024 2343 
L 1024 2931 
L 992 2944 
C 653 2803 422 2721 45 2599 
L 45 2496 
z
" transform="scale(0.015625)"/>
       <path id="NimbusRomNo9L-Regu-69" d="M 1120 2929 
L 128 2579 
L 128 2484 
L 179 2490 
C 256 2502 339 2509 397 2509 
C 550 2509 608 2406 608 2125 
L 608 640 
C 608 179 544 109 102 109 
L 102 0 
L 1619 0 
L 1619 96 
C 1197 128 1146 191 1146 650 
L 1146 2910 
L 1120 2929 
z
M 819 4352 
C 646 4352 499 4205 499 4026 
C 499 3847 640 3699 819 3699 
C 1005 3699 1152 3840 1152 4026 
C 1152 4205 1005 4352 819 4352 
z
" transform="scale(0.015625)"/>
       <path id="NimbusRomNo9L-Regu-70" d="M 58 2516 
C 115 2522 160 2522 218 2522 
C 435 2522 480 2458 480 2155 
L 480 -855 
C 480 -1189 410 -1261 32 -1299 
L 32 -1408 
L 1581 -1408 
L 1581 -1293 
C 1101 -1293 1018 -1222 1018 -816 
L 1018 199 
C 1242 -13 1395 -77 1664 -77 
C 2419 -77 3008 643 3008 1575 
C 3008 2372 2560 2944 1939 2944 
C 1581 2944 1299 2784 1018 2438 
L 1018 2931 
L 979 2944 
C 634 2810 410 2726 58 2618 
L 58 2516 
z
M 1018 2136 
C 1018 2329 1376 2560 1670 2560 
C 2144 2560 2458 2071 2458 1324 
C 2458 611 2144 128 1683 128 
C 1382 128 1018 359 1018 552 
L 1018 2136 
z
" transform="scale(0.015625)"/>
       <path id="NimbusRomNo9L-Regu-6c" d="M 122 4000 
L 160 4000 
C 230 4000 307 4000 358 4000 
C 563 4000 627 3910 627 3610 
L 627 557 
C 627 211 538 128 134 96 
L 134 0 
L 1645 0 
L 1645 109 
C 1242 109 1165 173 1165 528 
L 1165 4371 
L 1139 4384 
C 806 4275 563 4211 122 4103 
L 122 4000 
z
" transform="scale(0.015625)"/>
       <path id="NimbusRomNo9L-Regu-61" d="M 2829 423 
C 2720 333 2643 301 2547 301 
C 2400 301 2355 390 2355 672 
L 2355 1920 
C 2355 2253 2323 2438 2227 2592 
C 2086 2822 1811 2944 1434 2944 
C 832 2944 358 2630 358 2227 
C 358 2080 486 1952 634 1952 
C 787 1952 922 2080 922 2221 
C 922 2246 915 2278 909 2323 
C 896 2381 890 2432 890 2477 
C 890 2650 1094 2790 1350 2790 
C 1664 2790 1837 2605 1837 2259 
L 1837 1869 
C 851 1472 742 1421 467 1178 
C 326 1050 237 832 237 621 
C 237 218 518 -64 909 -64 
C 1190 -64 1453 70 1843 403 
C 1875 70 1990 -64 2253 -64 
C 2470 -64 2605 13 2829 256 
L 2829 423 
z
M 1837 783 
C 1837 584 1805 526 1670 449 
C 1517 359 1338 301 1203 301 
C 979 301 800 520 800 796 
L 800 822 
C 800 1201 1062 1433 1837 1715 
L 1837 783 
z
" transform="scale(0.015625)"/>
       <path id="NimbusRomNo9L-Regu-65" d="M 2611 1053 
C 2304 564 2029 378 1619 378 
C 1254 378 979 564 794 930 
C 678 1174 634 1386 621 1779 
L 2592 1779 
C 2541 2193 2477 2377 2317 2581 
C 2125 2811 1830 2944 1498 2944 
C 1178 2944 877 2829 634 2611 
C 333 2349 160 1894 160 1370 
C 160 486 621 -64 1357 -64 
C 1965 -64 2445 315 2714 1008 
L 2611 1053 
z
M 634 1984 
C 704 2479 922 2714 1312 2714 
C 1702 2714 1856 2535 1939 1984 
L 634 1984 
z
" transform="scale(0.015625)"/>
       <path id="NimbusRomNo9L-Regu-63" d="M 2547 998 
C 2240 550 2010 397 1645 397 
C 1062 397 653 909 653 1645 
C 653 2304 1005 2758 1523 2758 
C 1754 2758 1837 2688 1901 2451 
L 1939 2310 
C 1990 2131 2106 2016 2240 2016 
C 2406 2016 2547 2138 2547 2285 
C 2547 2643 2099 2944 1562 2944 
C 1248 2944 922 2816 659 2586 
C 339 2304 160 1869 160 1363 
C 160 531 666 -64 1376 -64 
C 1664 -64 1920 38 2150 237 
C 2323 390 2445 563 2637 941 
L 2547 998 
z
" transform="scale(0.015625)"/>
       <path id="NimbusRomNo9L-Regu-79" d="M 3040 2880 
L 2176 2880 
L 2176 2784 
C 2381 2784 2483 2726 2483 2623 
C 2483 2597 2477 2559 2458 2514 
L 1837 742 
L 1101 2377 
C 1062 2468 1037 2552 1037 2622 
C 1037 2739 1133 2784 1408 2784 
L 1408 2880 
L 90 2880 
L 90 2790 
C 256 2765 365 2694 416 2585 
L 1146 1005 
L 1165 953 
L 1261 761 
C 1440 440 1542 209 1542 112 
C 1542 16 1395 -389 1286 -582 
C 1197 -749 1056 -871 966 -871 
C 928 -871 870 -858 806 -826 
C 685 -781 576 -755 467 -755 
C 320 -755 192 -883 192 -1037 
C 192 -1248 397 -1408 666 -1408 
C 1094 -1408 1402 -1049 1747 -124 
L 2733 2495 
C 2816 2701 2886 2765 3040 2784 
L 3040 2880 
z
" transform="scale(0.015625)"/>
       <path id="NimbusRomNo9L-Regu-28" d="M 1888 4326 
C 1414 4019 1222 3853 986 3558 
C 531 3002 307 2362 307 1613 
C 307 800 544 173 1107 -480 
C 1370 -787 1536 -928 1869 -1133 
L 1946 -1030 
C 1434 -627 1254 -403 1082 77 
C 928 506 858 992 858 1632 
C 858 2304 941 2829 1114 3226 
C 1293 3622 1485 3853 1946 4224 
L 1888 4326 
z
" transform="scale(0.015625)"/>
       <path id="NimbusRomNo9L-Regu-6d" d="M 122 2547 
C 205 2566 256 2573 326 2573 
C 493 2573 550 2470 550 2162 
L 550 539 
C 550 192 461 96 102 96 
L 102 0 
L 1523 0 
L 1523 96 
C 1184 96 1088 166 1088 418 
L 1088 2234 
C 1088 2246 1139 2310 1184 2355 
C 1344 2502 1619 2611 1843 2611 
C 2125 2611 2266 2385 2266 1932 
L 2266 528 
C 2266 167 2195 96 1830 96 
L 1830 0 
L 3264 0 
L 3264 96 
C 2899 96 2803 205 2803 603 
L 2803 2221 
C 2995 2496 3206 2611 3501 2611 
C 3866 2611 3981 2438 3981 1907 
L 3981 557 
C 3981 192 3930 141 3558 96 
L 3558 0 
L 4960 0 
L 4960 96 
L 4794 115 
C 4602 115 4518 230 4518 480 
L 4518 1802 
C 4518 2559 4269 2944 3776 2944 
C 3405 2944 3078 2778 2733 2407 
C 2618 2771 2400 2944 2054 2944 
C 1773 2944 1594 2854 1062 2451 
L 1062 2931 
L 1018 2944 
C 691 2822 474 2752 122 2656 
L 122 2547 
z
" transform="scale(0.015625)"/>
       <path id="NimbusRomNo9L-Regu-73" d="M 2016 2010 
L 1990 2880 
L 1920 2880 
L 1907 2867 
C 1850 2822 1843 2816 1818 2816 
C 1779 2816 1715 2829 1645 2861 
C 1504 2915 1363 2944 1197 2944 
C 691 2944 326 2616 326 2154 
C 326 1796 531 1539 1075 1231 
L 1446 1020 
C 1670 892 1779 737 1779 539 
C 1779 256 1574 77 1248 77 
C 1030 77 832 159 710 298 
C 576 455 518 600 435 960 
L 333 960 
L 333 -39 
L 416 -39 
C 461 33 486 48 563 48 
C 621 48 710 35 858 -2 
C 1037 -39 1210 -64 1325 -64 
C 1818 -64 2227 308 2227 757 
C 2227 1077 2074 1289 1690 1520 
L 998 1930 
C 819 2033 723 2194 723 2367 
C 723 2624 922 2803 1216 2803 
C 1581 2803 1773 2583 1920 2010 
L 2016 2010 
z
" transform="scale(0.015625)"/>
       <path id="NimbusRomNo9L-Regu-29" d="M 243 -1133 
C 717 -826 909 -659 1146 -365 
C 1600 192 1824 832 1824 1581 
C 1824 2400 1587 3021 1024 3674 
C 762 3981 595 4122 262 4326 
L 186 4224 
C 698 3821 870 3597 1050 3117 
C 1203 2688 1274 2202 1274 1562 
C 1274 896 1190 365 1018 -26 
C 838 -429 646 -659 186 -1030 
L 243 -1133 
z
" transform="scale(0.015625)"/>
      </defs>
      <use xlink:href="#NimbusRomNo9L-Regu-52" transform="scale(0.996264)"/>
      <use xlink:href="#NimbusRomNo9L-Regu-6f" transform="translate(66.450031 0) scale(0.996264)"/>
      <use xlink:href="#NimbusRomNo9L-Regu-75" transform="translate(116.263232 0) scale(0.996264)"/>
      <use xlink:href="#NimbusRomNo9L-Regu-6e" transform="translate(166.076432 0) scale(0.996264)"/>
      <use xlink:href="#NimbusRomNo9L-Regu-64" transform="translate(215.889633 0) scale(0.996264)"/>
      <use xlink:href="#NimbusRomNo9L-Regu-2d" transform="translate(265.702833 0) scale(0.996264)"/>
      <use xlink:href="#NimbusRomNo9L-Regu-74" transform="translate(298.878063 0) scale(0.996264)"/>
      <use xlink:href="#NimbusRomNo9L-Regu-72" transform="translate(326.573232 0) scale(0.996264)"/>
      <use xlink:href="#NimbusRomNo9L-Regu-69" transform="translate(359.748462 0) scale(0.996264)"/>
      <use xlink:href="#NimbusRomNo9L-Regu-70" transform="translate(387.443632 0) scale(0.996264)"/>
      <use xlink:href="#NimbusRomNo9L-Regu-6c" transform="translate(462.163433 0) scale(0.996264)"/>
      <use xlink:href="#NimbusRomNo9L-Regu-61" transform="translate(489.858602 0) scale(0.996264)"/>
      <use xlink:href="#NimbusRomNo9L-Regu-74" transform="translate(534.092171 0) scale(0.996264)"/>
      <use xlink:href="#NimbusRomNo9L-Regu-65" transform="translate(561.78734 0) scale(0.996264)"/>
      <use xlink:href="#NimbusRomNo9L-Regu-6e" transform="translate(606.020909 0) scale(0.996264)"/>
      <use xlink:href="#NimbusRomNo9L-Regu-63" transform="translate(655.83411 0) scale(0.996264)"/>
      <use xlink:href="#NimbusRomNo9L-Regu-79" transform="translate(698.574286 0) scale(0.996264)"/>
      <use xlink:href="#NimbusRomNo9L-Regu-28" transform="translate(773.294086 0) scale(0.996264)"/>
      <use xlink:href="#NimbusRomNo9L-Regu-6d" transform="translate(806.469316 0) scale(0.996264)"/>
      <use xlink:href="#NimbusRomNo9L-Regu-69" transform="translate(883.977686 0) scale(0.996264)"/>
      <use xlink:href="#NimbusRomNo9L-Regu-6c" transform="translate(911.672856 0) scale(0.996264)"/>
      <use xlink:href="#NimbusRomNo9L-Regu-6c" transform="translate(939.368025 0) scale(0.996264)"/>
      <use xlink:href="#NimbusRomNo9L-Regu-69" transform="translate(967.063195 0) scale(0.996264)"/>
      <use xlink:href="#NimbusRomNo9L-Regu-73" transform="translate(994.758365 0) scale(0.996264)"/>
      <use xlink:href="#NimbusRomNo9L-Regu-65" transform="translate(1033.512071 0) scale(0.996264)"/>
      <use xlink:href="#NimbusRomNo9L-Regu-63" transform="translate(1077.74564 0) scale(0.996264)"/>
      <use xlink:href="#NimbusRomNo9L-Regu-6f" transform="translate(1121.979208 0) scale(0.996264)"/>
      <use xlink:href="#NimbusRomNo9L-Regu-6e" transform="translate(1171.792409 0) scale(0.996264)"/>
      <use xlink:href="#NimbusRomNo9L-Regu-64" transform="translate(1221.605609 0) scale(0.996264)"/>
      <use xlink:href="#NimbusRomNo9L-Regu-73" transform="translate(1271.41881 0) scale(0.996264)"/>
      <use xlink:href="#NimbusRomNo9L-Regu-29" transform="translate(1310.172516 0) scale(0.996264)"/>
     </g>
    </g>
   </g>
   <g id="matplotlib.axis_2">
    <g id="ytick_1">
     <g id="line2d_61">
      <defs>
       <path id="m2195c3ad6b" d="M 0 0 
L 3 0 
" style="stroke: #000000; stroke-width: 0.5"/>
      </defs>
      <g>
       <use xlink:href="#m2195c3ad6b" x="30.184287" y="86.76" style="stroke: #000000; stroke-width: 0.5"/>
      </g>
     </g>
     <g id="line2d_62">
      <defs>
       <path id="mb898623b13" d="M 0 0 
L -3 0 
" style="stroke: #000000; stroke-width: 0.5"/>
      </defs>
      <g>
       <use xlink:href="#mb898623b13" x="225.484287" y="86.76" style="stroke: #000000; stroke-width: 0.5"/>
      </g>
     </g>
     <g id="text_6">
      <!-- $\mathdefault{0}$ -->
      <g transform="translate(22.699231 89.461828) scale(0.08 -0.08)">
       <use xlink:href="#NimbusRomNo9L-Regu-30" transform="scale(0.996264)"/>
      </g>
     </g>
    </g>
    <g id="ytick_2">
     <g id="line2d_63">
      <g>
       <use xlink:href="#m2195c3ad6b" x="30.184287" y="67.86" style="stroke: #000000; stroke-width: 0.5"/>
      </g>
     </g>
     <g id="line2d_64">
      <g>
       <use xlink:href="#mb898623b13" x="225.484287" y="67.86" style="stroke: #000000; stroke-width: 0.5"/>
      </g>
     </g>
     <g id="text_7">
      <!-- $\mathdefault{25}$ -->
      <g transform="translate(18.714175 70.561828) scale(0.08 -0.08)">
       <defs>
        <path id="NimbusRomNo9L-Regu-35" d="M 1158 3776 
L 2413 3776 
C 2515 3776 2541 3789 2560 3834 
L 2803 4403 
L 2746 4448 
C 2650 4314 2586 4282 2451 4282 
L 1114 4282 
L 416 2759 
C 410 2746 410 2740 410 2727 
C 410 2695 435 2676 486 2676 
C 691 2676 947 2631 1210 2547 
C 1946 2309 2285 1910 2285 1274 
C 2285 656 1894 173 1395 173 
C 1267 173 1158 218 966 360 
C 762 508 614 572 480 572 
C 294 572 205 495 205 334 
C 205 90 506 -64 986 -64 
C 1523 -64 1984 110 2304 438 
C 2598 728 2733 1094 2733 1583 
C 2733 2046 2611 2342 2291 2663 
C 2010 2947 1645 3094 890 3229 
L 1158 3776 
z
" transform="scale(0.015625)"/>
       </defs>
       <use xlink:href="#NimbusRomNo9L-Regu-32" transform="scale(0.996264)"/>
       <use xlink:href="#NimbusRomNo9L-Regu-35" transform="translate(49.8132 0) scale(0.996264)"/>
      </g>
     </g>
    </g>
    <g id="ytick_3">
     <g id="line2d_65">
      <g>
       <use xlink:href="#m2195c3ad6b" x="30.184287" y="48.96" style="stroke: #000000; stroke-width: 0.5"/>
      </g>
     </g>
     <g id="line2d_66">
      <g>
       <use xlink:href="#mb898623b13" x="225.484287" y="48.96" style="stroke: #000000; stroke-width: 0.5"/>
      </g>
     </g>
     <g id="text_8">
      <!-- $\mathdefault{50}$ -->
      <g transform="translate(18.714175 51.661828) scale(0.08 -0.08)">
       <use xlink:href="#NimbusRomNo9L-Regu-35" transform="scale(0.996264)"/>
       <use xlink:href="#NimbusRomNo9L-Regu-30" transform="translate(49.8132 0) scale(0.996264)"/>
      </g>
     </g>
    </g>
    <g id="ytick_4">
     <g id="line2d_67">
      <g>
       <use xlink:href="#m2195c3ad6b" x="30.184287" y="30.06" style="stroke: #000000; stroke-width: 0.5"/>
      </g>
     </g>
     <g id="line2d_68">
      <g>
       <use xlink:href="#mb898623b13" x="225.484287" y="30.06" style="stroke: #000000; stroke-width: 0.5"/>
      </g>
     </g>
     <g id="text_9">
      <!-- $\mathdefault{75}$ -->
      <g transform="translate(18.714175 32.761828) scale(0.08 -0.08)">
       <defs>
        <path id="NimbusRomNo9L-Regu-37" d="M 2874 4250 
L 506 4250 
L 128 3310 
L 237 3258 
C 512 3693 627 3776 979 3776 
L 2368 3776 
L 1101 -32 
L 1517 -32 
L 2874 4148 
L 2874 4250 
z
" transform="scale(0.015625)"/>
       </defs>
       <use xlink:href="#NimbusRomNo9L-Regu-37" transform="scale(0.996264)"/>
       <use xlink:href="#NimbusRomNo9L-Regu-35" transform="translate(49.8132 0) scale(0.996264)"/>
      </g>
     </g>
    </g>
    <g id="ytick_5">
     <g id="line2d_69">
      <g>
       <use xlink:href="#m2195c3ad6b" x="30.184287" y="11.16" style="stroke: #000000; stroke-width: 0.5"/>
      </g>
     </g>
     <g id="line2d_70">
      <g>
       <use xlink:href="#mb898623b13" x="225.484287" y="11.16" style="stroke: #000000; stroke-width: 0.5"/>
      </g>
     </g>
     <g id="text_10">
      <!-- $\mathdefault{100}$ -->
      <g transform="translate(14.729119 13.861828) scale(0.08 -0.08)">
       <use xlink:href="#NimbusRomNo9L-Regu-31" transform="scale(0.996264)"/>
       <use xlink:href="#NimbusRomNo9L-Regu-30" transform="translate(49.8132 0) scale(0.996264)"/>
       <use xlink:href="#NimbusRomNo9L-Regu-30" transform="translate(99.626401 0) scale(0.996264)"/>
      </g>
     </g>
    </g>
    <g id="ytick_6">
     <g id="line2d_71">
      <defs>
       <path id="maab8b57daa" d="M 0 0 
L 1.5 0 
" style="stroke: #000000; stroke-width: 0.5"/>
      </defs>
      <g>
       <use xlink:href="#maab8b57daa" x="30.184287" y="82.98" style="stroke: #000000; stroke-width: 0.5"/>
      </g>
     </g>
     <g id="line2d_72">
      <defs>
       <path id="m7e83571f0c" d="M 0 0 
L -1.5 0 
" style="stroke: #000000; stroke-width: 0.5"/>
      </defs>
      <g>
       <use xlink:href="#m7e83571f0c" x="225.484287" y="82.98" style="stroke: #000000; stroke-width: 0.5"/>
      </g>
     </g>
    </g>
    <g id="ytick_7">
     <g id="line2d_73">
      <g>
       <use xlink:href="#maab8b57daa" x="30.184287" y="79.2" style="stroke: #000000; stroke-width: 0.5"/>
      </g>
     </g>
     <g id="line2d_74">
      <g>
       <use xlink:href="#m7e83571f0c" x="225.484287" y="79.2" style="stroke: #000000; stroke-width: 0.5"/>
      </g>
     </g>
    </g>
    <g id="ytick_8">
     <g id="line2d_75">
      <g>
       <use xlink:href="#maab8b57daa" x="30.184287" y="75.42" style="stroke: #000000; stroke-width: 0.5"/>
      </g>
     </g>
     <g id="line2d_76">
      <g>
       <use xlink:href="#m7e83571f0c" x="225.484287" y="75.42" style="stroke: #000000; stroke-width: 0.5"/>
      </g>
     </g>
    </g>
    <g id="ytick_9">
     <g id="line2d_77">
      <g>
       <use xlink:href="#maab8b57daa" x="30.184287" y="71.64" style="stroke: #000000; stroke-width: 0.5"/>
      </g>
     </g>
     <g id="line2d_78">
      <g>
       <use xlink:href="#m7e83571f0c" x="225.484287" y="71.64" style="stroke: #000000; stroke-width: 0.5"/>
      </g>
     </g>
    </g>
    <g id="ytick_10">
     <g id="line2d_79">
      <g>
       <use xlink:href="#maab8b57daa" x="30.184287" y="64.08" style="stroke: #000000; stroke-width: 0.5"/>
      </g>
     </g>
     <g id="line2d_80">
      <g>
       <use xlink:href="#m7e83571f0c" x="225.484287" y="64.08" style="stroke: #000000; stroke-width: 0.5"/>
      </g>
     </g>
    </g>
    <g id="ytick_11">
     <g id="line2d_81">
      <g>
       <use xlink:href="#maab8b57daa" x="30.184287" y="60.3" style="stroke: #000000; stroke-width: 0.5"/>
      </g>
     </g>
     <g id="line2d_82">
      <g>
       <use xlink:href="#m7e83571f0c" x="225.484287" y="60.3" style="stroke: #000000; stroke-width: 0.5"/>
      </g>
     </g>
    </g>
    <g id="ytick_12">
     <g id="line2d_83">
      <g>
       <use xlink:href="#maab8b57daa" x="30.184287" y="56.52" style="stroke: #000000; stroke-width: 0.5"/>
      </g>
     </g>
     <g id="line2d_84">
      <g>
       <use xlink:href="#m7e83571f0c" x="225.484287" y="56.52" style="stroke: #000000; stroke-width: 0.5"/>
      </g>
     </g>
    </g>
    <g id="ytick_13">
     <g id="line2d_85">
      <g>
       <use xlink:href="#maab8b57daa" x="30.184287" y="52.74" style="stroke: #000000; stroke-width: 0.5"/>
      </g>
     </g>
     <g id="line2d_86">
      <g>
       <use xlink:href="#m7e83571f0c" x="225.484287" y="52.74" style="stroke: #000000; stroke-width: 0.5"/>
      </g>
     </g>
    </g>
    <g id="ytick_14">
     <g id="line2d_87">
      <g>
       <use xlink:href="#maab8b57daa" x="30.184287" y="45.18" style="stroke: #000000; stroke-width: 0.5"/>
      </g>
     </g>
     <g id="line2d_88">
      <g>
       <use xlink:href="#m7e83571f0c" x="225.484287" y="45.18" style="stroke: #000000; stroke-width: 0.5"/>
      </g>
     </g>
    </g>
    <g id="ytick_15">
     <g id="line2d_89">
      <g>
       <use xlink:href="#maab8b57daa" x="30.184287" y="41.4" style="stroke: #000000; stroke-width: 0.5"/>
      </g>
     </g>
     <g id="line2d_90">
      <g>
       <use xlink:href="#m7e83571f0c" x="225.484287" y="41.4" style="stroke: #000000; stroke-width: 0.5"/>
      </g>
     </g>
    </g>
    <g id="ytick_16">
     <g id="line2d_91">
      <g>
       <use xlink:href="#maab8b57daa" x="30.184287" y="37.62" style="stroke: #000000; stroke-width: 0.5"/>
      </g>
     </g>
     <g id="line2d_92">
      <g>
       <use xlink:href="#m7e83571f0c" x="225.484287" y="37.62" style="stroke: #000000; stroke-width: 0.5"/>
      </g>
     </g>
    </g>
    <g id="ytick_17">
     <g id="line2d_93">
      <g>
       <use xlink:href="#maab8b57daa" x="30.184287" y="33.84" style="stroke: #000000; stroke-width: 0.5"/>
      </g>
     </g>
     <g id="line2d_94">
      <g>
       <use xlink:href="#m7e83571f0c" x="225.484287" y="33.84" style="stroke: #000000; stroke-width: 0.5"/>
      </g>
     </g>
    </g>
    <g id="ytick_18">
     <g id="line2d_95">
      <g>
       <use xlink:href="#maab8b57daa" x="30.184287" y="26.28" style="stroke: #000000; stroke-width: 0.5"/>
      </g>
     </g>
     <g id="line2d_96">
      <g>
       <use xlink:href="#m7e83571f0c" x="225.484287" y="26.28" style="stroke: #000000; stroke-width: 0.5"/>
      </g>
     </g>
    </g>
    <g id="ytick_19">
     <g id="line2d_97">
      <g>
       <use xlink:href="#maab8b57daa" x="30.184287" y="22.5" style="stroke: #000000; stroke-width: 0.5"/>
      </g>
     </g>
     <g id="line2d_98">
      <g>
       <use xlink:href="#m7e83571f0c" x="225.484287" y="22.5" style="stroke: #000000; stroke-width: 0.5"/>
      </g>
     </g>
    </g>
    <g id="ytick_20">
     <g id="line2d_99">
      <g>
       <use xlink:href="#maab8b57daa" x="30.184287" y="18.72" style="stroke: #000000; stroke-width: 0.5"/>
      </g>
     </g>
     <g id="line2d_100">
      <g>
       <use xlink:href="#m7e83571f0c" x="225.484287" y="18.72" style="stroke: #000000; stroke-width: 0.5"/>
      </g>
     </g>
    </g>
    <g id="ytick_21">
     <g id="line2d_101">
      <g>
       <use xlink:href="#maab8b57daa" x="30.184287" y="14.94" style="stroke: #000000; stroke-width: 0.5"/>
      </g>
     </g>
     <g id="line2d_102">
      <g>
       <use xlink:href="#m7e83571f0c" x="225.484287" y="14.94" style="stroke: #000000; stroke-width: 0.5"/>
      </g>
     </g>
    </g>
    <g id="ytick_22">
     <g id="line2d_103">
      <g>
       <use xlink:href="#maab8b57daa" x="30.184287" y="7.38" style="stroke: #000000; stroke-width: 0.5"/>
      </g>
     </g>
     <g id="line2d_104">
      <g>
       <use xlink:href="#m7e83571f0c" x="225.484287" y="7.38" style="stroke: #000000; stroke-width: 0.5"/>
      </g>
     </g>
    </g>
    <g id="ytick_23">
     <g id="line2d_105">
      <g>
       <use xlink:href="#maab8b57daa" x="30.184287" y="3.6" style="stroke: #000000; stroke-width: 0.5"/>
      </g>
     </g>
     <g id="line2d_106">
      <g>
       <use xlink:href="#m7e83571f0c" x="225.484287" y="3.6" style="stroke: #000000; stroke-width: 0.5"/>
      </g>
     </g>
    </g>
    <g id="text_11">
     <!-- Percentiles CDF (\%) -->
     <g transform="translate(9.003656 78.383095) rotate(-90) scale(0.08 -0.08)">
      <defs>
       <path id="NimbusRomNo9L-Regu-50" d="M 1293 1875 
C 1459 1856 1568 1856 1734 1856 
C 2234 1856 2579 1919 2854 2072 
C 3238 2274 3469 2660 3469 3078 
C 3469 3344 3379 3584 3206 3768 
C 2950 4047 2394 4224 1792 4224 
L 102 4224 
L 102 4102 
C 576 4051 640 3987 640 3528 
L 640 766 
C 640 230 589 166 102 122 
L 102 0 
L 1894 0 
L 1894 128 
C 1389 128 1293 218 1293 693 
L 1293 1875 
z
M 1293 3772 
C 1293 3943 1338 3987 1510 3987 
C 2374 3987 2771 3690 2771 3040 
C 2771 2428 2394 2112 1658 2112 
C 1530 2112 1440 2119 1293 2131 
L 1293 3772 
z
" transform="scale(0.015625)"/>
       <path id="NimbusRomNo9L-Regu-43" d="M 3968 2906 
L 3910 4352 
L 3776 4352 
C 3738 4218 3635 4141 3507 4141 
C 3450 4141 3354 4160 3258 4199 
C 2944 4301 2624 4352 2323 4352 
C 1798 4352 1267 4154 870 3802 
C 422 3405 179 2810 179 2106 
C 179 1511 371 960 698 596 
C 1082 180 1670 -64 2304 -64 
C 3027 -64 3661 231 4051 749 
L 3936 864 
C 3462 410 3040 218 2509 218 
C 2106 218 1747 346 1472 589 
C 1120 903 922 1479 922 2189 
C 922 3348 1517 4096 2445 4096 
C 2810 4096 3142 3962 3398 3706 
C 3603 3501 3699 3322 3821 2906 
L 3968 2906 
z
" transform="scale(0.015625)"/>
       <path id="NimbusRomNo9L-Regu-44" d="M 666 679 
C 666 217 589 134 102 134 
L 102 0 
L 1920 0 
C 2662 0 3334 210 3731 568 
C 4147 944 4384 1512 4384 2131 
C 4384 2706 4192 3203 3840 3554 
C 3405 3994 2707 4224 1830 4224 
L 102 4224 
L 102 4102 
C 608 4057 666 4000 666 3525 
L 666 679 
z
M 1318 3738 
C 1318 3936 1389 3987 1651 3987 
C 2202 3987 2618 3885 2925 3668 
C 3424 3323 3686 2775 3686 2087 
C 3686 1334 3424 798 2906 498 
C 2579 314 2208 237 1651 237 
C 1395 237 1318 294 1318 498 
L 1318 3738 
z
" transform="scale(0.015625)"/>
       <path id="NimbusRomNo9L-Regu-46" d="M 3066 1472 
L 3066 2957 
L 2918 2957 
C 2842 2461 2726 2368 2214 2368 
L 1286 2368 
L 1286 3766 
C 1286 3943 1318 3981 1491 3981 
L 2362 3981 
C 3085 3981 3226 3886 3334 3314 
L 3494 3314 
L 3475 4224 
L 77 4224 
L 77 4102 
C 550 4064 634 3974 634 3525 
L 634 749 
C 634 217 563 134 77 134 
L 77 0 
L 1869 0 
L 1869 134 
C 1376 134 1286 225 1286 692 
L 1286 2106 
L 2214 2106 
C 2733 2106 2842 2007 2918 1472 
L 3066 1472 
z
" transform="scale(0.015625)"/>
       <path id="NimbusRomNo9L-Regu-25" d="M 4282 2368 
C 3558 2368 2874 1622 2874 824 
C 2874 325 3181 0 3642 0 
C 3930 0 4166 102 4390 325 
C 4730 670 4941 1187 4941 1686 
C 4941 2120 4698 2368 4282 2368 
z
M 4326 2164 
C 4570 2164 4774 1934 4774 1654 
C 4774 1290 4614 856 4371 556 
C 4166 301 3981 192 3750 192 
C 3520 192 3360 357 3360 601 
C 3360 939 3539 1462 3776 1793 
C 3949 2048 4128 2164 4326 2164 
z
M 4058 4320 
L 3808 4320 
C 3462 4008 3206 3904 2810 3904 
C 2554 3904 2406 3946 2253 4064 
C 2086 4194 2003 4224 1805 4224 
C 1075 4224 390 3468 390 2662 
C 390 2217 730 1856 1146 1856 
C 1421 1856 1709 1984 1920 2209 
C 2253 2549 2458 3056 2458 3526 
C 2458 3615 2445 3693 2413 3808 
C 2528 3763 2643 3744 2829 3744 
C 3110 3744 3277 3788 3533 3931 
L 1286 -96 
L 1594 -96 
L 4058 4320 
z
M 2240 3829 
C 2278 3702 2298 3607 2298 3518 
C 2298 2802 1773 2073 1254 2073 
C 1030 2073 877 2231 877 2460 
C 877 2726 1005 3157 1178 3474 
C 1363 3816 1606 4032 1805 4032 
C 1837 4032 1850 4025 1888 3993 
C 1978 3911 2054 3879 2240 3829 
z
" transform="scale(0.015625)"/>
      </defs>
      <use xlink:href="#NimbusRomNo9L-Regu-50" transform="scale(0.996264)"/>
      <use xlink:href="#NimbusRomNo9L-Regu-65" transform="translate(55.391677 0) scale(0.996264)"/>
      <use xlink:href="#NimbusRomNo9L-Regu-72" transform="translate(99.625246 0) scale(0.996264)"/>
      <use xlink:href="#NimbusRomNo9L-Regu-63" transform="translate(132.800475 0) scale(0.996264)"/>
      <use xlink:href="#NimbusRomNo9L-Regu-65" transform="translate(177.034044 0) scale(0.996264)"/>
      <use xlink:href="#NimbusRomNo9L-Regu-6e" transform="translate(221.267613 0) scale(0.996264)"/>
      <use xlink:href="#NimbusRomNo9L-Regu-74" transform="translate(271.080813 0) scale(0.996264)"/>
      <use xlink:href="#NimbusRomNo9L-Regu-69" transform="translate(298.775983 0) scale(0.996264)"/>
      <use xlink:href="#NimbusRomNo9L-Regu-6c" transform="translate(326.471152 0) scale(0.996264)"/>
      <use xlink:href="#NimbusRomNo9L-Regu-65" transform="translate(354.166322 0) scale(0.996264)"/>
      <use xlink:href="#NimbusRomNo9L-Regu-73" transform="translate(398.399891 0) scale(0.996264)"/>
      <use xlink:href="#NimbusRomNo9L-Regu-43" transform="translate(462.060197 0) scale(0.996264)"/>
      <use xlink:href="#NimbusRomNo9L-Regu-44" transform="translate(528.510228 0) scale(0.996264)"/>
      <use xlink:href="#NimbusRomNo9L-Regu-46" transform="translate(600.440213 0) scale(0.996264)"/>
      <use xlink:href="#NimbusRomNo9L-Regu-28" transform="translate(680.73849 0) scale(0.996264)"/>
      <use xlink:href="#NimbusRomNo9L-Regu-25" transform="translate(713.91372 0) scale(0.996264)"/>
      <use xlink:href="#NimbusRomNo9L-Regu-29" transform="translate(796.90215 0) scale(0.996264)"/>
     </g>
    </g>
   </g>
   <g id="line2d_107">
    <path d="M 39.06156 86.76 
L 39.490035 86.532973 
L 39.88496 86.003243 
L 40.306564 82.597838 
L 40.411794 80.403243 
L 40.580802 76.997838 
L 40.908284 68.219459 
L 41.490996 45.819459 
L 41.540577 44.078919 
L 41.852028 34.241081 
L 41.909967 33.257297 
L 42.02722 28.943784 
L 42.17367 24.478919 
L 42.255312 22.587027 
L 42.583825 17.743784 
L 42.655046 16.987027 
L 42.761077 16.305946 
L 43.13688 14.716757 
L 43.317224 14.414054 
L 43.500889 13.808649 
L 43.643218 13.581622 
L 44.474633 12.522162 
L 45.172307 12.370811 
L 52.199203 11.916757 
L 52.749052 11.68973 
L 58.351401 11.235676 
L 108.152269 11.16 
L 108.152269 11.16 
" clip-path="url(#pe4eb7b6034)" style="fill: none; stroke: #000000; stroke-linecap: square"/>
   </g>
   <g id="line2d_108">
    <path d="M 48.474838 86.76 
L 49.078047 86.543691 
L 49.378506 85.786609 
L 49.846256 85.137682 
L 50.05076 84.705064 
L 50.250341 84.380601 
L 50.388204 84.056137 
L 50.619732 83.190901 
L 50.802366 82.758283 
L 51.030573 81.24412 
L 51.154695 80.487039 
L 51.284429 79.621803 
L 51.442101 78.864721 
L 51.66527 77.242403 
L 51.784698 76.485322 
L 51.97592 75.944549 
L 52.071645 75.403777 
L 52.276264 74.863004 
L 52.502296 74.214077 
L 52.776877 73.781459 
L 52.872832 73.348841 
L 52.930542 73.024378 
L 53.234436 72.808069 
L 53.314932 72.59176 
L 53.412719 72.483605 
L 54.376043 71.942833 
L 54.390929 71.834678 
L 55.057687 71.510215 
L 55.179863 71.293906 
L 55.447917 71.077597 
L 55.644177 70.753133 
L 55.939484 70.536824 
L 56.166546 69.887897 
L 56.313455 69.671588 
L 56.324333 69.563433 
L 56.529524 69.347124 
L 56.583914 69.022661 
L 56.712731 68.698197 
L 57.232466 67.400343 
L 57.553078 66.859571 
L 57.680635 66.535107 
L 57.776819 66.210644 
L 57.868766 65.88618 
L 58.001133 65.561717 
L 58.3435 64.372017 
L 58.515486 63.831245 
L 58.642013 63.290472 
L 58.885334 63.074163 
L 58.950487 62.966009 
L 59.180412 62.7497 
L 59.553924 62.208927 
L 59.738734 61.992618 
L 59.833773 61.668155 
L 60.137324 61.019227 
L 60.527668 60.586609 
L 61.681299 60.262146 
L 62.685959 59.829528 
L 62.790959 59.721373 
L 63.186915 59.505064 
L 63.387297 58.747983 
L 63.705733 58.20721 
L 63.897643 57.666438 
L 64.048101 57.450129 
L 64.252491 56.584893 
L 64.372835 56.152275 
L 64.471309 55.07073 
L 64.621195 54.529957 
L 64.73089 53.88103 
L 65.253602 49.338541 
L 65.311999 48.797768 
L 65.45158 47.824378 
L 65.549023 47.067296 
L 66.982616 35.927382 
L 67.0567 35.602918 
L 67.312502 33.764292 
L 68.340979 29.438112 
L 68.519606 29.113648 
L 68.606973 28.68103 
L 68.77266 28.356567 
L 68.781477 28.248412 
L 68.922775 28.032103 
L 69.03247 27.275021 
L 69.178234 27.058712 
L 69.334762 26.409785 
L 69.541213 26.085322 
L 69.641976 25.652704 
L 69.745488 25.32824 
L 70.005527 25.111931 
L 70.560644 23.814077 
L 71.156867 23.381459 
L 71.167287 23.273305 
L 71.869313 22.624378 
L 72.077138 22.19176 
L 73.766991 18.081888 
L 73.839816 17.757425 
L 74.146687 17.216652 
L 74.298177 16.784034 
L 74.303787 16.67588 
L 74.845278 16.135107 
L 74.949019 15.918798 
L 75.263905 15.594335 
L 75.712647 15.378026 
L 76.19139 14.404635 
L 77.088645 14.188326 
L 77.495593 13.972017 
L 79.128767 13.647554 
L 79.493463 13.106781 
L 80.925453 12.457854 
L 80.932781 12.3497 
L 81.766944 12.133391 
L 81.898395 11.917082 
L 83.950769 11.376309 
L 98.68712 11.16 
L 98.68712 11.16 
" clip-path="url(#pe4eb7b6034)" style="fill: none; stroke-dasharray: 3.7,1.6; stroke-dashoffset: 0; stroke: #ff0000"/>
   </g>
   <g id="line2d_109">
    <path d="M 112.584842 86.76 
L 112.994653 86.507157 
L 113.215074 86.001472 
L 113.451181 85.748629 
L 114.813782 84.9901 
L 114.97695 84.231572 
L 115.142638 83.978729 
L 115.163134 83.725886 
L 115.485464 83.473043 
L 116.025695 83.220201 
L 116.45062 81.703144 
L 116.937606 81.197458 
L 117.049362 80.691773 
L 117.3086 80.43893 
L 117.408448 79.680401 
L 117.554441 79.427559 
L 118.035129 79.174716 
L 118.098107 78.66903 
L 118.729025 78.416187 
L 118.974179 78.163344 
L 119.099446 77.151973 
L 119.342424 76.393445 
L 119.412615 75.634916 
L 119.653074 74.876388 
L 120.057389 73.106488 
L 120.258344 72.600803 
L 120.303687 72.34796 
L 120.497543 71.842274 
L 120.565787 70.830903 
L 120.961858 69.313846 
L 121.164301 68.049632 
L 121.433501 67.796789 
L 121.756746 65.774047 
L 121.980144 65.521204 
L 122.008884 65.268361 
L 122.153274 65.015518 
L 122.280145 64.004147 
L 122.447665 63.245619 
L 122.559993 62.48709 
L 122.698543 61.981405 
L 122.745605 61.728562 
L 122.934193 61.475719 
L 124.145533 53.637592 
L 124.251793 53.131906 
L 124.492825 52.120535 
L 124.590382 51.109164 
L 125.085957 49.086421 
L 125.249927 48.580736 
L 125.31611 47.822207 
L 125.586455 46.810836 
L 125.673707 46.305151 
L 126.454053 44.788094 
L 126.460809 44.535251 
L 126.679168 44.029565 
L 126.817604 42.765351 
L 126.907375 42.006823 
L 127.233369 40.995452 
L 127.793409 40.489766 
L 128.211808 39.731237 
L 128.448717 39.478395 
L 128.542839 38.719866 
L 128.900665 38.214181 
L 128.937764 37.961338 
L 129.248758 37.455652 
L 129.405972 36.444281 
L 129.572118 35.938595 
L 129.768951 35.685753 
L 129.769981 35.43291 
L 130.226395 34.674381 
L 130.271281 34.168696 
L 130.600938 33.410167 
L 130.776359 32.398796 
L 131.068688 32.145953 
L 131.375903 31.640268 
L 131.55327 31.387425 
L 131.586247 31.134582 
L 131.874569 30.881739 
L 132.165868 29.870368 
L 132.187166 29.617525 
L 132.570526 29.111839 
L 132.582778 28.858997 
L 133.118314 28.353311 
L 133.306215 27.847625 
L 133.695759 27.594783 
L 133.87095 27.089097 
L 134.004577 26.583411 
L 134.171753 25.824883 
L 134.359769 25.319197 
L 134.505762 24.813512 
L 134.505876 24.560669 
L 135.180879 23.296455 
L 135.417101 22.790769 
L 135.445613 22.285084 
L 135.862751 21.526555 
L 136.258707 21.273712 
L 136.895351 21.02087 
L 137.417032 20.515184 
L 138.079553 20.262341 
L 138.241806 19.756656 
L 138.606502 19.503813 
L 139.568795 19.25097 
L 139.738033 18.998127 
L 141.13132 18.239599 
L 141.387237 17.228227 
L 142.379073 16.975385 
L 142.383424 16.722542 
L 142.660868 16.216856 
L 142.700486 15.964013 
L 143.421863 15.205485 
L 144.658967 14.952642 
L 147.387946 14.699799 
L 178.212829 14.194114 
L 180.126309 13.688428 
L 187.093663 13.435585 
L 205.877624 13.182742 
L 210.777375 12.677057 
L 211.088597 12.171371 
L 213.188262 11.918528 
L 213.21746 11.665686 
L 215.538346 11.412843 
L 216.607014 11.16 
L 216.607014 11.16 
" clip-path="url(#pe4eb7b6034)" style="fill: none; stroke-dasharray: 1,1.65; stroke-dashoffset: 0; stroke: #0000ff"/>
   </g>
   <g id="patch_3">
    <path d="M 30.184287 86.76 
L 30.184287 3.6 
" style="fill: none; stroke: #000000; stroke-width: 0.5; stroke-linejoin: miter; stroke-linecap: square"/>
   </g>
   <g id="patch_4">
    <path d="M 225.484287 86.76 
L 225.484287 3.6 
" style="fill: none; stroke: #000000; stroke-width: 0.5; stroke-linejoin: miter; stroke-linecap: square"/>
   </g>
   <g id="patch_5">
    <path d="M 30.184287 86.76 
L 225.484287 86.76 
" style="fill: none; stroke: #000000; stroke-width: 0.5; stroke-linejoin: miter; stroke-linecap: square"/>
   </g>
   <g id="patch_6">
    <path d="M 30.184287 3.6 
L 225.484287 3.6 
" style="fill: none; stroke: #000000; stroke-width: 0.5; stroke-linejoin: miter; stroke-linecap: square"/>
   </g>
   <g id="legend_1">
    <g id="line2d_110">
     <path d="M 149.179821 52.383611 
L 157.179821 52.383611 
L 165.179821 52.383611 
" style="fill: none; stroke: #000000; stroke-linecap: square"/>
    </g>
    <g id="text_12">
     <!-- 1-task batch -->
     <g transform="translate(171.579821 55.183611) scale(0.08 -0.08)">
      <defs>
       <path id="NimbusRomNo9L-Regu-6b" d="M 45 3987 
C 128 3994 186 4000 250 4000 
C 461 4000 525 3917 525 3610 
L 525 525 
C 525 192 506 173 45 96 
L 45 0 
L 1542 0 
L 1542 102 
L 1414 102 
C 1158 102 1062 193 1062 419 
L 1062 1606 
L 1958 415 
L 1978 389 
C 1990 370 2003 351 2022 331 
C 2074 267 2093 229 2093 198 
C 2093 140 2035 102 1958 102 
L 1837 102 
L 1837 0 
L 3232 0 
L 3232 102 
C 2950 102 2752 225 2483 553 
L 1504 1805 
L 1690 1978 
C 2144 2400 2541 2694 2726 2746 
C 2822 2771 2912 2784 3021 2784 
L 3072 2784 
L 3072 2880 
L 1766 2880 
L 1766 2784 
C 2016 2784 2086 2758 2086 2669 
C 2086 2618 2029 2528 1939 2451 
L 1062 1670 
L 1062 4358 
L 1037 4371 
C 794 4294 608 4243 237 4141 
L 45 4090 
L 45 3987 
z
" transform="scale(0.015625)"/>
       <path id="NimbusRomNo9L-Regu-62" d="M 979 4364 
L 947 4377 
C 678 4281 506 4230 205 4147 
L 19 4096 
L 19 3994 
C 58 4000 83 4000 128 4000 
C 384 4000 442 3942 442 3673 
L 442 347 
C 442 147 986 -64 1498 -64 
C 2342 -64 2995 640 2995 1555 
C 2995 2342 2509 2944 1869 2944 
C 1478 2944 1107 2714 979 2400 
L 979 4364 
z
M 979 2061 
C 979 2310 1280 2541 1613 2541 
C 2112 2541 2432 2042 2432 1261 
C 2432 550 2125 141 1600 141 
C 1267 141 979 288 979 448 
L 979 2061 
z
" transform="scale(0.015625)"/>
       <path id="NimbusRomNo9L-Regu-68" d="M 1005 2222 
C 1274 2516 1466 2624 1715 2624 
C 2035 2624 2195 2395 2195 1948 
L 2195 684 
C 2195 250 2131 166 1760 128 
L 1760 32 
L 3117 32 
L 3117 128 
C 2771 192 2733 243 2733 684 
L 2733 1954 
C 2733 2625 2464 2970 1946 2970 
C 1568 2970 1299 2816 1005 2432 
L 1005 4390 
L 973 4409 
C 755 4332 595 4281 237 4179 
L 64 4128 
L 64 4026 
C 90 4032 109 4032 141 4032 
C 416 4032 467 3980 467 3705 
L 467 686 
C 467 237 429 179 58 128 
L 58 32 
L 1440 32 
L 1440 128 
C 1069 166 1005 243 1005 684 
L 1005 2222 
z
" transform="scale(0.015625)"/>
      </defs>
      <use xlink:href="#NimbusRomNo9L-Regu-31" transform="scale(0.996264)"/>
      <use xlink:href="#NimbusRomNo9L-Regu-2d" transform="translate(49.8132 0) scale(0.996264)"/>
      <use xlink:href="#NimbusRomNo9L-Regu-74" transform="translate(82.98843 0) scale(0.996264)"/>
      <use xlink:href="#NimbusRomNo9L-Regu-61" transform="translate(110.6836 0) scale(0.996264)"/>
      <use xlink:href="#NimbusRomNo9L-Regu-73" transform="translate(154.917169 0) scale(0.996264)"/>
      <use xlink:href="#NimbusRomNo9L-Regu-6b" transform="translate(193.670875 0) scale(0.996264)"/>
      <use xlink:href="#NimbusRomNo9L-Regu-62" transform="translate(268.390675 0) scale(0.996264)"/>
      <use xlink:href="#NimbusRomNo9L-Regu-61" transform="translate(318.203876 0) scale(0.996264)"/>
      <use xlink:href="#NimbusRomNo9L-Regu-74" transform="translate(362.437445 0) scale(0.996264)"/>
      <use xlink:href="#NimbusRomNo9L-Regu-63" transform="translate(390.132614 0) scale(0.996264)"/>
      <use xlink:href="#NimbusRomNo9L-Regu-68" transform="translate(434.366183 0) scale(0.996264)"/>
     </g>
    </g>
    <g id="line2d_111">
     <path d="M 149.179821 63.709074 
L 157.179821 63.709074 
L 165.179821 63.709074 
" style="fill: none; stroke-dasharray: 3.7,1.6; stroke-dashoffset: 0; stroke: #ff0000"/>
    </g>
    <g id="text_13">
     <!-- 10-task batch -->
     <g transform="translate(171.579821 66.509074) scale(0.08 -0.08)">
      <use xlink:href="#NimbusRomNo9L-Regu-31" transform="scale(0.996264)"/>
      <use xlink:href="#NimbusRomNo9L-Regu-30" transform="translate(49.8132 0) scale(0.996264)"/>
      <use xlink:href="#NimbusRomNo9L-Regu-2d" transform="translate(99.626401 0) scale(0.996264)"/>
      <use xlink:href="#NimbusRomNo9L-Regu-74" transform="translate(132.801631 0) scale(0.996264)"/>
      <use xlink:href="#NimbusRomNo9L-Regu-61" transform="translate(160.4968 0) scale(0.996264)"/>
      <use xlink:href="#NimbusRomNo9L-Regu-73" transform="translate(204.730369 0) scale(0.996264)"/>
      <use xlink:href="#NimbusRomNo9L-Regu-6b" transform="translate(243.484075 0) scale(0.996264)"/>
      <use xlink:href="#NimbusRomNo9L-Regu-62" transform="translate(318.203876 0) scale(0.996264)"/>
      <use xlink:href="#NimbusRomNo9L-Regu-61" transform="translate(368.017076 0) scale(0.996264)"/>
      <use xlink:href="#NimbusRomNo9L-Regu-74" transform="translate(412.250645 0) scale(0.996264)"/>
      <use xlink:href="#NimbusRomNo9L-Regu-63" transform="translate(439.945815 0) scale(0.996264)"/>
      <use xlink:href="#NimbusRomNo9L-Regu-68" transform="translate(484.179383 0) scale(0.996264)"/>
     </g>
    </g>
    <g id="line2d_112">
     <path d="M 149.179821 75.034537 
L 157.179821 75.034537 
L 165.179821 75.034537 
" style="fill: none; stroke-dasharray: 1,1.65; stroke-dashoffset: 0; stroke: #0000ff"/>
    </g>
    <g id="text_14">
     <!-- 100-task batch -->
     <g transform="translate(171.579821 77.834537) scale(0.08 -0.08)">
      <use xlink:href="#NimbusRomNo9L-Regu-31" transform="scale(0.996264)"/>
      <use xlink:href="#NimbusRomNo9L-Regu-30" transform="translate(49.8132 0) scale(0.996264)"/>
      <use xlink:href="#NimbusRomNo9L-Regu-30" transform="translate(99.626401 0) scale(0.996264)"/>
      <use xlink:href="#NimbusRomNo9L-Regu-2d" transform="translate(149.439601 0) scale(0.996264)"/>
      <use xlink:href="#NimbusRomNo9L-Regu-74" transform="translate(182.614831 0) scale(0.996264)"/>
      <use xlink:href="#NimbusRomNo9L-Regu-61" transform="translate(210.310001 0) scale(0.996264)"/>
      <use xlink:href="#NimbusRomNo9L-Regu-73" transform="translate(254.54357 0) scale(0.996264)"/>
      <use xlink:href="#NimbusRomNo9L-Regu-6b" transform="translate(293.297276 0) scale(0.996264)"/>
      <use xlink:href="#NimbusRomNo9L-Regu-62" transform="translate(368.017076 0) scale(0.996264)"/>
      <use xlink:href="#NimbusRomNo9L-Regu-61" transform="translate(417.830277 0) scale(0.996264)"/>
      <use xlink:href="#NimbusRomNo9L-Regu-74" transform="translate(462.063846 0) scale(0.996264)"/>
      <use xlink:href="#NimbusRomNo9L-Regu-63" transform="translate(489.759015 0) scale(0.996264)"/>
      <use xlink:href="#NimbusRomNo9L-Regu-68" transform="translate(533.992584 0) scale(0.996264)"/>
     </g>
    </g>
   </g>
  </g>
 </g>
 <defs>
  <clipPath id="pe4eb7b6034">
   <rect x="30.184287" y="3.6" width="195.3" height="83.16"/>
  </clipPath>
 </defs>
</svg>
