<?xml version="1.0" encoding="UTF-8" standalone="no"?>
<svg
   width="1658"
   height="709"
   xml:space="preserve"
   overflow="hidden"
   version="1.1"
   id="svg60"
   sodipodi:docname="subtasking.svg"
   inkscape:version="1.4 (86a8ad7, 2024-10-11)"
   xmlns:inkscape="http://www.inkscape.org/namespaces/inkscape"
   xmlns:sodipodi="http://sodipodi.sourceforge.net/DTD/sodipodi-0.dtd"
   xmlns="http://www.w3.org/2000/svg"
   xmlns:svg="http://www.w3.org/2000/svg"><defs
     id="defs60" /><sodipodi:namedview
     id="namedview60"
     pagecolor="#ffffff"
     bordercolor="#000000"
     borderopacity="0.25"
     inkscape:showpageshadow="2"
     inkscape:pageopacity="0.0"
     inkscape:pagecheckerboard="0"
     inkscape:deskcolor="#d1d1d1"
     inkscape:zoom="2.1737033"
     inkscape:cx="1267.6523"
     inkscape:cy="524.91065"
     inkscape:window-width="1720"
     inkscape:window-height="689"
     inkscape:window-x="-8"
     inkscape:window-y="-8"
     inkscape:window-maximized="1"
     inkscape:current-layer="g60" /><g
     transform="translate(-607 -801)"
     id="g60"><path
       d="M987.5 949.5C987.5 935.141 999.141 923.5 1013.5 923.5 1027.86 923.5 1039.5 935.141 1039.5 949.5 1039.5 963.859 1027.86 975.5 1013.5 975.5 999.141 975.5 987.5 963.859 987.5 949.5Z"
       stroke="#000000"
       stroke-width="3.4375"
       stroke-miterlimit="8"
       fill="#00B0F0"
       fill-rule="evenodd"
       fill-opacity="0.490196"
       id="path1" /><rect
       x="994.5"
       y="831.5"
       width="39.0002"
       height="38.9998"
       stroke="#000000"
       stroke-width="3.4375"
       stroke-miterlimit="8"
       fill="#92D050"
       fill-opacity="0.960784"
       id="rect1" /><rect
       x="1049.5"
       y="1027.5"
       width="39.0002"
       height="39.0002"
       stroke="#000000"
       stroke-width="3.4375"
       stroke-miterlimit="8"
       fill="#FF0000"
       fill-opacity="0.501961"
       id="rect2" /><rect
       x="947.5"
       y="1027.5"
       width="39.0002"
       height="39.0002"
       stroke="#000000"
       stroke-width="3.4375"
       stroke-miterlimit="8"
       fill="#FF0000"
       fill-opacity="0.501961"
       id="rect3" /><path
       d="M1015.79 870.5 1015.79 919.756 1011.21 919.756 1011.21 870.5ZM1026.9 902.637 1013.5 924.08 1000.1 902.637C999.428 901.564 999.754 900.15 1000.83 899.479 1001.9 898.809 1003.31 899.135 1003.99 900.208L1015.44 918.541 1011.56 918.541 1023.02 900.208C1023.69 899.135 1025.1 898.808 1026.17 899.479 1027.25 900.15 1027.57 901.564 1026.9 902.637Z"
       id="path3" /><path
       d="M2.07005-0.983183 28.5138 54.6929 24.3737 56.6593-2.07005 0.983183ZM31.205 34.4632 28.2988 59.5819 6.99378 45.9625C5.9274 45.2808 5.61554 43.8638 6.29723 42.7974 6.97892 41.731 8.39602 41.4191 9.4624 42.1008L27.6781 53.7453 24.1673 55.4127 26.6521 33.9365C26.7975 32.6792 27.9347 31.7779 29.1919 31.9234 30.4492 32.0688 31.3505 33.206 31.205 34.4632Z"
       transform="matrix(-1 0 0 1 994.792 968.5)"
       id="path4" /><path
       d="M1033.44 967.28 1068.61 1023.2 1064.73 1025.64 1029.56 969.72ZM1068.9 1002.79 1068.97 1028.08 1046.21 1017.06C1045.07 1016.51 1044.59 1015.14 1045.14 1014 1045.7 1012.86 1047.07 1012.39 1048.21 1012.94L1067.66 1022.36 1064.37 1024.43 1064.31 1002.81C1064.31 1001.54 1065.33 1000.51 1066.6 1000.51 1067.87 1000.51 1068.89 1001.53 1068.9 1002.79Z"
       id="path5" /><path
       d="M1819.5 947.5C1819.5 933.141 1831.14 921.5 1845.5 921.5 1859.86 921.5 1871.5 933.141 1871.5 947.5 1871.5 961.859 1859.86 973.5 1845.5 973.5 1831.14 973.5 1819.5 961.859 1819.5 947.5Z"
       stroke="#000000"
       stroke-width="3.4375"
       stroke-miterlimit="8"
       fill="#92D050"
       fill-rule="evenodd"
       id="path6" /><rect
       x="1825.5"
       y="828.5"
       width="38.9999"
       height="39.0002"
       stroke="#000000"
       stroke-width="3.4375"
       stroke-miterlimit="8"
       fill="#92D050"
       fill-opacity="0.960784"
       id="rect6" /><rect
       x="1877.5"
       y="1438.5"
       width="38.9999"
       height="38.9999"
       stroke="#000000"
       stroke-width="3.4375"
       stroke-miterlimit="8"
       fill="#FF0000"
       fill-opacity="0.501961"
       id="rect7" /><path
       d="M1847.79 867.5 1847.79 916.756 1843.21 916.756 1843.21 867.5ZM1858.9 899.637 1845.5 921.08 1832.1 899.638C1831.43 898.564 1831.75 897.15 1832.83 896.48 1833.9 895.809 1835.31 896.135 1835.99 897.208L1847.44 915.542 1843.56 915.542 1855.02 897.208C1855.69 896.135 1857.1 895.809 1858.17 896.479 1859.25 897.15 1859.57 898.564 1858.9 899.637Z"
       id="path7" /><path
       d="M1769.5 1149.5C1769.5 1135.14 1781.14 1123.5 1795.5 1123.5 1809.86 1123.5 1821.5 1135.14 1821.5 1149.5 1821.5 1163.86 1809.86 1175.5 1795.5 1175.5 1781.14 1175.5 1769.5 1163.86 1769.5 1149.5Z"
       stroke="#000000"
       stroke-width="3.4375"
       stroke-miterlimit="8"
       fill="#00B0F0"
       fill-rule="evenodd"
       fill-opacity="0.490196"
       id="path8" /><path
       d="M1870.5 1149.5C1870.5 1135.14 1882.14 1123.5 1896.5 1123.5 1910.86 1123.5 1922.5 1135.14 1922.5 1149.5 1922.5 1163.86 1910.86 1175.5 1896.5 1175.5 1882.14 1175.5 1870.5 1163.86 1870.5 1149.5Z"
       stroke="#000000"
       stroke-width="3.4375"
       stroke-miterlimit="8"
       fill="#00B0F0"
       fill-rule="evenodd"
       fill-opacity="0.490196"
       id="path9" /><path
       d="M1976.5 1149.5C1976.5 1135.14 1988.14 1123.5 2002.5 1123.5 2016.86 1123.5 2028.5 1135.14 2028.5 1149.5 2028.5 1163.86 2016.86 1175.5 2002.5 1175.5 1988.14 1175.5 1976.5 1163.86 1976.5 1149.5Z"
       stroke="#000000"
       stroke-width="3.4375"
       stroke-miterlimit="8"
       fill="#00B0F0"
       fill-rule="evenodd"
       fill-opacity="0.490196"
       id="path10" /><path
       d="M1870.5 1355.5C1870.5 1341.14 1882.14 1329.5 1896.5 1329.5 1910.86 1329.5 1922.5 1341.14 1922.5 1355.5 1922.5 1369.86 1910.86 1381.5 1896.5 1381.5 1882.14 1381.5 1870.5 1369.86 1870.5 1355.5Z"
       stroke="#000000"
       stroke-width="3.4375"
       stroke-miterlimit="8"
       fill="#FF0000"
       fill-rule="evenodd"
       fill-opacity="0.490196"
       id="path11" /><rect
       x="1775.5"
       y="1027.5"
       width="39.0002"
       height="39.0002"
       stroke="#000000"
       stroke-width="3.4375"
       stroke-miterlimit="8"
       fill="#92D050"
       fill-opacity="0.960784"
       id="rect11" /><rect
       x="1877.5"
       y="1027.5"
       width="38.9999"
       height="39.0002"
       stroke="#000000"
       stroke-width="3.4375"
       stroke-miterlimit="8"
       fill="#92D050"
       fill-opacity="0.960784"
       id="rect12" /><rect
       x="1982.5"
       y="1027.5"
       width="39.0002"
       height="39.0002"
       stroke="#000000"
       stroke-width="3.4375"
       stroke-miterlimit="8"
       fill="#92D050"
       fill-opacity="0.960784"
       id="rect13" /><text
       font-family="Aptos, Aptos_MSFontService, sans-serif"
       font-weight="400"
       font-size="46px"
       id="text13"
       x="1001.921"
       y="964">1</text><text
       font-family="Aptos, Aptos_MSFontService, sans-serif"
       font-weight="400"
       font-size="46px"
       id="text14"
       x="954.73401"
       y="1062">b</text><text
       font-family="Aptos, Aptos_MSFontService, sans-serif"
       font-weight="400"
       font-size="46px"
       id="text15"
       x="1057.55"
       y="1058">c</text><rect
       x="1671.5"
       y="1027.5"
       width="38.9999"
       height="39.0002"
       stroke="#000000"
       stroke-width="3.4375"
       stroke-miterlimit="8"
       fill="#92D050"
       fill-opacity="0.960784"
       id="rect15" /><rect
       x="1775.5"
       y="1232.5"
       width="39.0002"
       height="39.0002"
       stroke="#000000"
       stroke-width="3.4375"
       stroke-miterlimit="8"
       fill="#FF0000"
       fill-opacity="0.501961"
       id="rect16" /><rect
       x="1877.5"
       y="1234.5"
       width="38.9999"
       height="39.0002"
       stroke="#000000"
       stroke-width="3.4375"
       stroke-miterlimit="8"
       fill="#FF0000"
       fill-opacity="0.501961"
       id="rect17" /><rect
       x="1982.5"
       y="1232.5"
       width="39.0002"
       height="39.0002"
       stroke="#000000"
       stroke-width="3.4375"
       stroke-miterlimit="8"
       fill="#FF0000"
       fill-opacity="0.501961"
       id="rect18" /><path
       d="M1.21274-1.94448 126.533 76.2153 124.107 80.1043-1.21274 1.94448ZM117.887 57.7293 128.989 80.4479 103.703 80.4719C102.437 80.4731 101.41 79.4481 101.409 78.1824 101.408 76.9168 102.433 75.8898 103.698 75.8886L125.318 75.8681 123.261 79.1659 113.769 59.7416C113.213 58.6045 113.685 57.2321 114.822 56.6765 115.959 56.1208 117.331 56.5921 117.887 57.7293Z"
       transform="matrix(-1 0 0 1 1819.48 947.5)"
       id="path18" /><path
       d="M2.03963-1.04482 31.8693 57.1866 27.79 59.2762-2.03963 1.04482ZM33.9526 36.8853 31.801 62.0798 10.0971 49.1055C9.01073 48.4561 8.65652 47.049 9.30592 45.9626 9.95532 44.8763 11.3624 44.5221 12.4488 45.1715L31.0055 56.2644 27.5463 58.0364 29.3859 36.4953C29.4935 35.2342 30.6031 34.2992 31.8642 34.4069 33.1253 34.5146 34.0603 35.6242 33.9526 36.8853Z"
       transform="matrix(-1 0 0 1 1827.29 965.5)"
       id="path19" /><path
       d="M1797.79 1066.5 1797.79 1119.29 1793.21 1119.29 1793.21 1066.5ZM1808.9 1102.17 1795.5 1123.62 1782.1 1102.17C1781.43 1101.1 1781.75 1099.69 1782.83 1099.02 1783.9 1098.34 1785.31 1098.67 1785.99 1099.74L1797.44 1118.08 1793.56 1118.08 1805.02 1099.74C1805.69 1098.67 1807.1 1098.34 1808.17 1099.02 1809.25 1099.69 1809.57 1101.1 1808.9 1102.17Z"
       id="path20" /><path
       d="M1898.79 1066.5 1898.79 1119.29 1894.21 1119.29 1894.21 1066.5ZM1909.9 1102.17 1896.5 1123.62 1883.1 1102.17C1882.43 1101.1 1882.75 1099.69 1883.83 1099.02 1884.9 1098.34 1886.31 1098.67 1886.99 1099.74L1898.44 1118.08 1894.56 1118.08 1906.02 1099.74C1906.69 1098.67 1908.1 1098.34 1909.17 1099.02 1910.25 1099.69 1910.57 1101.1 1909.9 1102.17Z"
       id="path21" /><path
       d="M2004.79 1066.5 2004.79 1119.29 2000.21 1119.29 2000.21 1066.5ZM2015.9 1102.17 2002.5 1123.62 1989.1 1102.17C1988.43 1101.1 1988.75 1099.69 1989.83 1099.02 1990.9 1098.34 1992.31 1098.67 1992.99 1099.74L2004.44 1118.08 2000.56 1118.08 2012.02 1099.74C2012.69 1098.67 2014.1 1098.34 2015.17 1099.02 2016.25 1099.69 2016.57 1101.1 2015.9 1102.17Z"
       id="path22" /><path
       d="M2004.79 1175.5 2004.79 1226.88 2000.21 1226.88 2000.21 1175.5ZM2015.9 1209.76 2002.5 1231.2 1989.1 1209.76C1988.43 1208.68 1988.75 1207.27 1989.83 1206.6 1990.9 1205.93 1992.31 1206.26 1992.99 1207.33L2004.44 1225.66 2000.56 1225.66 2012.02 1207.33C2012.69 1206.26 2014.1 1205.93 2015.17 1206.6 2016.25 1207.27 2016.57 1208.68 2015.9 1209.76Z"
       id="path23" /><path
       d="M1898.79 1175.5 1898.79 1228.19 1894.21 1228.19 1894.21 1175.5ZM1909.9 1211.07 1896.5 1232.51 1883.1 1211.07C1882.43 1210 1882.75 1208.58 1883.83 1207.91 1884.9 1207.24 1886.31 1207.57 1886.99 1208.64L1898.44 1226.98 1894.56 1226.98 1906.02 1208.64C1906.69 1207.57 1908.1 1207.24 1909.17 1207.91 1910.25 1208.58 1910.57 1210 1909.9 1211.07Z"
       id="path24" /><path
       d="M1797.79 1175.5 1797.79 1226.88 1793.21 1226.88 1793.21 1175.5ZM1808.9 1209.76 1795.5 1231.2 1782.1 1209.76C1781.43 1208.68 1781.75 1207.27 1782.83 1206.6 1783.9 1205.93 1785.31 1206.26 1785.99 1207.33L1797.44 1225.66 1793.56 1225.66 1805.02 1207.33C1805.69 1206.26 1807.1 1205.93 1808.17 1206.6 1809.25 1207.27 1809.57 1208.68 1808.9 1209.76Z"
       id="path25" /><path
       d="M1796.93 1268.71 1876.86 1332.73 1873.99 1336.31 1794.07 1272.29ZM1870.44 1313.36 1878.8 1337.22 1853.69 1334.28C1852.43 1334.13 1851.53 1332.99 1851.68 1331.73 1851.83 1330.48 1852.96 1329.58 1854.22 1329.72L1875.69 1332.24 1873.26 1335.27 1866.12 1314.87C1865.7 1313.68 1866.33 1312.37 1867.52 1311.95 1868.72 1311.53 1870.03 1312.16 1870.44 1313.36Z"
       id="path26" /><path
       d="M1898.79 1271.5 1898.79 1324.98 1894.21 1324.98 1894.21 1271.5ZM1909.9 1307.86 1896.5 1329.3 1883.1 1307.86C1882.43 1306.79 1882.75 1305.37 1883.83 1304.7 1884.9 1304.03 1886.31 1304.36 1886.99 1305.43L1898.44 1323.76 1894.56 1323.76 1906.02 1305.43C1906.69 1304.36 1908.1 1304.03 1909.17 1304.7 1910.25 1305.37 1910.57 1306.79 1909.9 1307.86Z"
       id="path27" /><path
       d="M1.39404-1.8189 85.016 62.2709 82.2279 65.9087-1.39404 1.8189ZM78.1872 43.0394 87.0538 66.7201 61.8824 64.3132C60.6225 64.1927 59.6988 63.0737 59.8193 61.8138 59.9398 60.5539 61.0588 59.6302 62.3187 59.7507L83.8401 61.8085 81.4758 64.8934 73.8948 44.6466C73.451 43.4613 74.0521 42.1406 75.2374 41.6968 76.4227 41.253 77.7433 41.8541 78.1872 43.0394Z"
       transform="matrix(-1 0 0 1 2002.54 1270.5)"
       id="path28" /><path
       d="M1898.79 1381.5 1898.79 1434.05 1894.21 1434.05 1894.21 1381.5ZM1909.9 1416.93 1896.5 1438.37 1883.1 1416.93C1882.43 1415.86 1882.75 1414.44 1883.83 1413.77 1884.9 1413.1 1886.31 1413.43 1886.99 1414.5L1898.44 1432.83 1894.56 1432.83 1906.02 1414.5C1906.69 1413.43 1908.1 1413.1 1909.17 1413.77 1910.25 1414.44 1910.57 1415.86 1909.9 1416.93Z"
       id="path29" /><text
       font-family="Aptos, Aptos_MSFontService, sans-serif"
       font-weight="400"
       font-size="46px"
       id="text29"
       x="1885.21"
       y="1164">3</text><text
       font-family="Aptos,Aptos_MSFontService,sans-serif"
       font-weight="400"
       font-size="46"
       transform="matrix(1 0 0 1 1989.15 1164)"
       id="text30">4</text><text
       font-family="Aptos, Aptos_MSFontService, sans-serif"
       font-weight="400"
       font-size="46px"
       id="text31"
       x="1834.27"
       y="857">a</text><text
       font-family="Aptos, Aptos_MSFontService, sans-serif"
       font-weight="400"
       font-size="46px"
       id="text32"
       x="1678.78"
       y="1063">b</text><text
       font-family="Aptos, Aptos_MSFontService, sans-serif"
       font-weight="400"
       font-size="46px"
       id="text33"
       x="1885.66"
       y="1467">c</text><text
       font-family="Aptos, Aptos_MSFontService, sans-serif"
       font-weight="400"
       font-size="46px"
       id="text34"
       x="1783.16"
       y="1063">d</text><path
       d="M1872.7 945.547 1999.96 1023.73 1997.56 1027.64 1870.3 949.452ZM1991.19 1005.3 2002.44 1027.95 1977.16 1028.14C1975.89 1028.15 1974.86 1027.13 1974.85 1025.87 1974.84 1024.6 1975.85 1023.57 1977.12 1023.56L1998.74 1023.39 1996.7 1026.7 1987.08 1007.34C1986.52 1006.21 1986.98 1004.84 1988.11 1004.27 1989.25 1003.71 1990.62 1004.17 1991.19 1005.3Z"
       id="path34" /><path
       d="M1865.52 964.421 1896.62 1022.69 1892.57 1024.84 1861.48 966.579ZM1898.36 1002.35 1896.63 1027.58 1874.71 1014.97C1873.61 1014.34 1873.24 1012.94 1873.87 1011.84 1874.5 1010.75 1875.9 1010.37 1877 1011L1895.74 1021.78 1892.31 1023.61 1893.79 1002.04C1893.87 1000.78 1894.97 999.823 1896.23 999.91 1897.49 999.996 1898.44 1001.09 1898.36 1002.35Z"
       id="path35" /><text
       font-family="Aptos, Aptos_MSFontService, sans-serif"
       font-weight="400"
       font-size="46px"
       id="text35"
       x="1885.03"
       y="1057">e</text><text
       font-family="Aptos, Aptos_MSFontService, sans-serif"
       font-weight="400"
       font-size="46px"
       id="text36"
       x="1993.22"
       y="1063">f</text><text
       font-family="Aptos, Aptos_MSFontService, sans-serif"
       font-weight="400"
       font-size="46px"
       id="text37"
       x="1833.92"
       y="961">1</text><rect
       x="619.5"
       y="1234.5"
       width="39.0002"
       height="39.0002"
       stroke="#000000"
       stroke-width="3.4375"
       stroke-miterlimit="8"
       fill="#92D050"
       fill-opacity="0.960784"
       id="rect37" /><text
       font-family="Aptos,Aptos_MSFontService,sans-serif"
       font-weight="400"
       font-size="46"
       transform="matrix(1 0 0 1 675.41 1268)"
       id="text38"
       style="-inkscape-font-specification:'Aptos, Aptos_MSFontService, sans-serif, Normal';font-family:Aptos, Aptos_MSFontService, sans-serif;font-weight:normal;font-style:normal;font-stretch:normal;font-variant:normal;font-size:46px;font-variant-ligatures:normal;font-variant-caps:normal;font-variant-numeric:normal;font-variant-east-asian:normal"><tspan
         sodipodi:role="line"
         id="tspan62">Available data</tspan></text><text
       font-family="Aptos,Aptos_MSFontService,sans-serif"
       font-weight="400"
       font-size="46"
       transform="matrix(1 0 0 1 675.41 1325)"
       id="text40"
       style="-inkscape-font-specification:'Aptos, Aptos_MSFontService, sans-serif, Normal';font-family:Aptos, Aptos_MSFontService, sans-serif;font-weight:normal;font-style:normal;font-stretch:normal;font-variant:normal;font-size:46px;font-variant-ligatures:normal;font-variant-caps:normal;font-variant-numeric:normal;font-variant-east-asian:normal"><tspan
         sodipodi:role="line"
         id="tspan63">Unavailable data</tspan></text><rect
       x="619.5"
       y="1288.5"
       width="39.0002"
       height="39.0002"
       stroke="#000000"
       stroke-width="3.4375"
       stroke-miterlimit="8"
       fill="#FF0000"
       fill-opacity="0.501961"
       id="rect41" /><text
       font-family="Aptos,Aptos_MSFontService,sans-serif"
       font-weight="400"
       font-size="46"
       transform="matrix(1 0 0 1 675.41 1371)"
       id="text42"
       style="-inkscape-font-specification:'Aptos, Aptos_MSFontService, sans-serif, Normal';font-family:Aptos, Aptos_MSFontService, sans-serif;font-weight:normal;font-style:normal;font-stretch:normal;font-variant:normal;font-size:46px;font-variant-ligatures:normal;font-variant-caps:normal;font-variant-numeric:normal;font-variant-east-asian:normal"><tspan
         sodipodi:role="line"
         id="tspan64">Ready task</tspan></text><path
       d="M619.5 1357C619.5 1346.23 628.23 1337.5 639 1337.5 649.77 1337.5 658.5 1346.23 658.5 1357 658.5 1367.77 649.77 1376.5 639 1376.5 628.23 1376.5 619.5 1367.77 619.5 1357Z"
       stroke="#000000"
       stroke-width="3.4375"
       stroke-miterlimit="8"
       fill="#00B0F0"
       fill-rule="evenodd"
       fill-opacity="0.490196"
       id="path43" /><text
       font-family="Aptos,Aptos_MSFontService,sans-serif"
       font-weight="400"
       font-size="46"
       transform="matrix(1 0 0 1 675.41 1418)"
       id="text44"
       style="-inkscape-font-specification:'Aptos, Aptos_MSFontService, sans-serif, Normal';font-family:Aptos, Aptos_MSFontService, sans-serif;font-weight:normal;font-style:normal;font-stretch:normal;font-variant:normal;font-size:46px;font-variant-ligatures:normal;font-variant-caps:normal;font-variant-numeric:normal;font-variant-east-asian:normal"><tspan
         sodipodi:role="line"
         id="tspan65">Pending task</tspan></text><path
       d="M619.5 1405C619.5 1394.23 628.23 1385.5 639 1385.5 649.77 1385.5 658.5 1394.23 658.5 1405 658.5 1415.77 649.77 1424.5 639 1424.5 628.23 1424.5 619.5 1415.77 619.5 1405Z"
       stroke="#000000"
       stroke-width="3.4375"
       stroke-miterlimit="8"
       fill="#FF0000"
       fill-rule="evenodd"
       fill-opacity="0.490196"
       id="path45" /><text
       font-family="Aptos,Aptos_MSFontService,sans-serif"
       font-weight="400"
       font-size="46"
       transform="matrix(1 0 0 1 675.41 1468)"
       id="text46"
       style="-inkscape-font-specification:'Aptos, Aptos_MSFontService, sans-serif, Normal';font-family:Aptos, Aptos_MSFontService, sans-serif;font-weight:normal;font-style:normal;font-stretch:normal;font-variant:normal;font-size:46px;font-variant-ligatures:normal;font-variant-caps:normal;font-variant-numeric:normal;font-variant-east-asian:normal"><tspan
         sodipodi:role="line"
         id="tspan66">Completed task</tspan></text><path
       d="M619.5 1454C619.5 1443.23 628.23 1434.5 639 1434.5 649.77 1434.5 658.5 1443.23 658.5 1454 658.5 1464.77 649.77 1473.5 639 1473.5 628.23 1473.5 619.5 1464.77 619.5 1454Z"
       stroke="#000000"
       stroke-width="3.4375"
       stroke-miterlimit="8"
       fill="#92D050"
       fill-rule="evenodd"
       id="path47" /><text
       font-family="Aptos,Aptos_MSFontService,sans-serif"
       font-weight="700"
       font-size="46"
       transform="matrix(1 0 0 1 643.681 877)"
       id="text48">(a)</text><text
       font-family="Aptos,Aptos_MSFontService,sans-serif"
       font-weight="700"
       font-size="46"
       transform="matrix(1 0 0 1 1465.98 876)"
       id="text49">(b)</text><path
       d="M0 0 0.000360892 670.042"
       stroke="#A6A6A6"
       stroke-width="6.875"
       stroke-miterlimit="8"
       stroke-dasharray="27.5 20.625"
       fill="none"
       fill-rule="evenodd"
       transform="matrix(-1 0 0 1 1432.5 820.5)"
       id="path49" /><path
       d="m 1090.6066,1044.86 21.6353,-0.48 21.7935,-0.17 22.0508,0.45 22.4267,1.38 11.4062,1.13 11.5349,1.48 11.6833,1.87 11.8514,2.29 12.0295,2.76 12.2174,3.26 12.4352,3.8 12.6527,4.39 12.9792,5.08 13.365,5.83 13.6914,6.49 13.9585,7.08 14.1862,7.59 14.3542,8.02 28.9856,17.02 29.0251,17.84 28.6294,18.03 27.7984,17.62 h -0.01 l 13.4639,8.46 -0.01,-0.01 13.0978,8.14 12.8011,8.14 12.6033,8.46 24.5635,17.52 23.9007,17.9 23.4061,17.68 -0.02,-0.02 23.0993,16.93 -0.05,-0.04 11.4952,8 -0.049,-0.03 11.4754,7.59 -0.05,-0.04 11.4755,7.12 -0.069,-0.04 11.5151,6.56 -0.089,-0.04 11.5645,5.94 -0.1088,-0.05 11.6338,5.26 -0.099,-0.04 11.6636,4.6 -0.089,-0.03 11.6338,4.07 -0.079,-0.03 11.6042,3.57 -0.079,-0.02 11.5745,3.1 -0.079,-0.02 11.5645,2.68 -0.079,-0.02 11.5349,2.29 -0.089,-0.02 23.0104,3.53 -0.1088,-0.02 22.9609,2.39 -0.089,-0.01 22.9115,1.52 h -0.06 l 23.0796,0.91 -0.178,4.58 -23.1094,-0.91 -22.9806,-1.53 -23.0499,-2.39 -23.1192,-3.55 -11.6141,-2.29 -11.6337,-2.7 -11.6536,-3.12 -11.6833,-3.6 -11.7128,-4.09 -11.7525,-4.65 -11.7327,-5.3 -11.6537,-5.99 -11.5941,-6.61 -11.5448,-7.16 -11.5249,-7.62 -11.535,-8.03 -23.1389,-16.95 -23.416,-17.69 0.01,0.01 -23.8808,-17.88 0.04,0.03 -24.5141,-17.49 0.06,0.04 -12.5538,-8.43 0.05,0.03 -12.7715,-8.11 0.02,0.01 -13.0979,-8.13 -13.4639,-8.47 -27.7984,-17.62 -28.6096,-18.02 0.02,0.01 -28.9954,-17.82 0.04,0.02 -28.946,-17 0.04,0.03 -14.3147,-8 0.04,0.02 -14.1465,-7.57 0.049,0.03 -13.919,-7.06 0.05,0.03 -13.6223,-6.46 0.059,0.03 -13.2958,-5.8 0.079,0.03 -12.9001,-5.05 0.089,0.03 -12.5736,-4.36 0.079,0.03 -12.3461,-3.78 0.069,0.02 -12.1383,-3.24 0.079,0.02 -11.9603,-2.74 0.079,0.02 -11.7822,-2.28 0.079,0.01 -11.614,-1.86 0.069,0.01 -11.4756,-1.47 0.069,0.01 -11.3369,-1.13 0.089,0.01 -22.3376,-1.37 h 0.099 l -21.9815,-0.44 h 0.059 l -21.7341,0.17 h 0.03 l -21.6254,0.47 z m 752.8226,293.05 26.7696,14.59 -27.6104,12.9 z"
       fill="#a6a6a6"
       id="path50"
       style="stroke-width:0.994619" /><text
       font-family="Aptos, Aptos_MSFontService, sans-serif"
       font-weight="400"
       font-size="46px"
       id="text50"
       x="1783.04"
       y="1258">g</text><text
       font-family="Aptos, Aptos_MSFontService, sans-serif"
       font-weight="400"
       font-size="46px"
       id="text51"
       x="1883.66"
       y="1269">h</text><text
       font-family="Aptos, Aptos_MSFontService, sans-serif"
       font-weight="400"
       font-size="46px"
       id="text52"
       x="1995.74"
       y="1267">i</text><text
       font-family="Aptos, Aptos_MSFontService, sans-serif"
       font-weight="400"
       font-size="46px"
       id="text53"
       x="1003.921"
       y="862">a</text><rect
       x="608.53339"
       y="1215.5334"
       width="450.11108"
       height="270.93317"
       stroke="#000000"
       stroke-width="3.50433"
       stroke-miterlimit="8"
       fill="none"
       id="rect53" /><path
       d="M2123.32 971.617 2122.95 978.985 2121.83 986.401 2120.04 993.687 2117.62 1000.79 2114.63 1007.65 2111.1 1014.22 2107.08 1020.44 2102.63 1026.25 2097.78 1031.61 2092.58 1036.45 2086.95 1040.82 2079.29 1044.22 2077.43 1040.03 2084.83 1036.74 2084.36 1037.02 2089.69 1032.89 2089.54 1033.02 2094.59 1028.32 2094.45 1028.46 2099.17 1023.25 2099.05 1023.39 2103.39 1017.72 2103.28 1017.87 2107.2 1011.81 2107.1 1011.97 2110.55 1005.56 2110.46 1005.73 2113.39 999.042 2113.32 999.22 2115.67 992.304 2115.62 992.496 2117.36 985.41 2117.32 985.617 2118.4 978.417 2118.37 978.64 2118.74 971.383ZM2086.86 1053.86 2056.5 1049.01 2078.6 1027.63Z"
       fill="#A6A6A6"
       id="path53" /><text
       font-family="Aptos,Aptos_MSFontService,sans-serif"
       font-weight="400"
       font-size="46"
       id="text54"
       style="font-style:normal;font-variant:normal;font-weight:normal;font-stretch:normal;font-size:46px;font-family:Aptos, Aptos_MSFontService, sans-serif;-inkscape-font-specification:'Aptos, Aptos_MSFontService, sans-serif, Normal';font-variant-ligatures:normal;font-variant-caps:normal;font-variant-numeric:normal;font-variant-east-asian:normal;text-align:center;writing-mode:lr-tb;text-anchor:middle"
       x="2121.3938"
       y="885"><tspan
         sodipodi:role="line"
         id="tspan60"
         x="2121.3938"
         y="885">Created by</tspan><tspan
         sodipodi:role="line"
         id="tspan61"
         x="2121.3938"
         y="942.5">task 1</tspan></text><text
       font-family="Aptos, Aptos_MSFontService, sans-serif"
       font-weight="400"
       font-size="46px"
       id="text58"
       x="1884.9"
       y="1370">5</text><text
       font-family="Aptos, Aptos_MSFontService, sans-serif"
       font-weight="400"
       font-size="46px"
       id="text59"
       x="1783.02"
       y="1164">2</text><text
       font-family="Aptos,Aptos_MSFontService,sans-serif"
       font-weight="400"
       font-size="46"
       transform="matrix(0.80893 0.587905 -0.587905 0.80893 1469.09 1167)"
       id="text60">Delegated</text><rect
       x="1757.5"
       y="999.5"
       width="282"
       height="402"
       stroke="#A6A6A6"
       stroke-width="4.58333"
       stroke-miterlimit="8"
       stroke-dasharray="18.3333 13.75 4.58333 13.75"
       fill="none"
       id="rect60" /></g></svg>
